<svg width="260" height="88" viewBox="0 0 260 88" fill="none" xmlns="http://www.w3.org/2000/svg">
<path d="M10.5619 0H249.438C255.265 0 260 4.7344 260 10.56V77.44C260 83.2656 255.265 88 249.438 88H10.5619C4.73527 88 0 83.2656 0 77.44V10.56C0 4.7344 4.73527 0 10.5619 0Z" fill="white"/>
<path d="M31.7254 42.2396C31.7254 42.2396 13.7877 32.2956 12.7315 31.7148C11.6753 31.134 10.6191 31.486 10.6191 32.7004V75.5564C10.6191 76.4716 11.3761 76.8588 12.2914 76.366C13.2068 75.8556 31.7254 65.5948 31.7254 65.5948C31.7254 65.5948 34.2427 64.2044 35.4925 63.5004C37.5169 62.374 41.5657 60.1388 41.5657 60.1388C41.5657 60.1388 49.9272 55.51 51.0362 54.894C52.1452 54.278 52.0396 53.4332 51.1066 52.958C50.1736 52.4828 41.5833 47.678 41.5833 47.678L31.7254 42.2396Z" fill="url(#paint0_linear_26_15785)"/>
<path d="M35.031 53.8618L11.4427 31.5098C10.897 31.633 10.5625 32.0554 10.5625 32.7418V75.5098C10.5625 76.0906 10.7913 76.4426 11.0906 76.5658L35.031 53.8618Z" fill="url(#paint1_linear_26_15785)"/>
<mask id="mask0_26_15785" style="mask-type:alpha" maskUnits="userSpaceOnUse" x="10" y="31" width="26" height="46">
<path d="M35.031 53.8616L11.4427 31.5096C10.897 31.6328 10.5625 32.0552 10.5625 32.7416V75.5096C10.5625 76.0904 10.7913 76.4424 11.0906 76.5656L35.031 53.8616Z" fill="white"/>
</mask>
<g mask="url(#mask0_26_15785)">
<mask id="mask1_26_15785" style="mask-type:alpha" maskUnits="userSpaceOnUse" x="11" y="53" width="31" height="24">
<path d="M12.0561 76.4401L25.6986 68.9425C29.0608 67.0769 31.7189 65.5985 31.7189 65.5985L41.6295 60.2657L35.0283 53.8593L11.0879 76.5633C11.3519 76.6513 11.8272 76.5985 12.1969 76.4225" fill="white"/>
</mask>
<g mask="url(#mask1_26_15785)">
<path d="M31.6844 42.2414C31.6492 42.3294 13.7115 32.3678 12.6729 31.8574C11.6167 31.1886 10.5605 31.5582 10.5605 32.7374V75.6814C10.5605 76.6318 11.3175 77.019 12.1448 76.5614C13.1482 75.9982 31.6492 65.7374 31.6844 65.6494L41.5423 60.1934C41.4895 60.2638 49.8334 55.635 50.872 55.0894C52.069 54.403 51.9458 53.5582 51.048 53.1534C50.0798 52.5902 41.4895 47.7854 41.5423 47.6974L31.6844 42.2414Z" fill="url(#paint2_linear_26_15785)"/>
</g>
<path d="M12.6893 31.6989C12.2316 31.4701 11.7915 31.3997 11.4219 31.4877L35.0278 53.8749L41.5586 47.6973L31.7184 42.2413C31.7184 42.2413 22.4415 37.1021 16.8437 34.0045L12.6893 31.6989Z" fill="url(#paint3_linear_26_15785)"/>
<mask id="mask2_26_15785" style="mask-type:alpha" maskUnits="userSpaceOnUse" x="11" y="31" width="31" height="23">
<path d="M12.6893 31.6989C12.2316 31.4701 11.7915 31.3997 11.4219 31.4877L35.0278 53.8749L41.5586 47.6973L31.7184 42.2413C31.7184 42.2413 22.4415 37.1021 16.8437 34.0045L12.6893 31.6989Z" fill="white"/>
</mask>
<g mask="url(#mask2_26_15785)">
</g>
</g>
<path d="M178.075 61.4051L176.121 63.2531C175.663 63.4995 175.223 63.7987 174.783 63.9923C173.428 64.6083 172.054 64.7667 170.822 64.7667C169.52 64.7667 167.478 64.6787 165.4 63.1651C162.514 61.1235 161.246 57.5859 161.246 54.5235C161.246 48.1699 166.386 45.0547 170.593 45.0547C172.054 45.0547 173.568 45.4243 174.783 46.1987C176.825 47.5539 177.353 49.3139 177.635 50.2643L168.059 54.1539L164.925 54.4003C165.946 59.6099 169.449 62.6371 173.322 62.6371C175.258 62.6371 176.684 62.0035 178.004 61.3523C178.004 61.3523 178.268 61.2115 178.075 61.4051ZM172.231 50.9507C173.005 50.6691 173.392 50.4227 173.392 49.8419C173.392 48.1875 171.579 46.2867 169.396 46.2867C167.794 46.2867 164.767 47.5715 164.767 52.0243C164.767 52.7283 164.855 53.4675 164.89 54.2067L172.231 50.9507Z" fill="black"/>
<path d="M158.076 61.1785C158.076 62.7626 158.358 63.009 159.696 63.1322C160.4 63.2201 161.087 63.2553 161.773 63.3257L160.277 64.2233H153.112C154.045 62.9913 154.221 62.8681 154.221 62.0585V61.1433L154.204 36.8554H151.035L154.081 35.377H159.89C158.622 36.1162 158.252 36.5562 158.094 37.9818L158.076 61.1785Z" fill="black"/>
<path d="M146.969 47.0624C147.902 47.8368 149.838 49.4736 149.838 52.5712C149.838 55.5984 148.148 57.024 146.441 58.3792C145.913 58.9072 145.297 59.488 145.297 60.3856C145.297 61.2832 145.913 61.776 146.353 62.1456L147.814 63.2896C149.592 64.8032 151.211 66.1936 151.211 69.0096C151.211 72.8464 147.515 76.736 140.544 76.736C134.664 76.736 131.83 73.92 131.83 70.8928C131.83 69.4144 132.552 67.3376 134.963 65.912C137.481 64.3632 140.878 64.152 142.709 64.0288C142.146 63.2896 141.494 62.5152 141.494 61.248C141.494 60.5616 141.705 60.1392 141.899 59.6464C141.459 59.6816 141.001 59.7344 140.596 59.7344C136.301 59.7344 133.872 56.496 133.872 53.3104C133.872 51.4272 134.717 49.3504 136.477 47.8368C138.783 45.9184 141.547 45.584 143.73 45.584H152.091L149.486 47.0624H146.969ZM144.117 65.1728C143.783 65.12 143.589 65.12 143.184 65.12C142.815 65.12 140.596 65.208 138.889 65.7888C137.991 66.1232 135.368 67.1264 135.368 70.0832C135.368 73.04 138.185 75.1696 142.568 75.1696C146.494 75.1696 148.571 73.2512 148.571 70.6816C148.571 68.5344 147.215 67.408 144.117 65.1728ZM145.261 57.288C146.194 56.3552 146.282 55.0528 146.282 54.3136C146.282 51.3744 144.557 46.816 141.195 46.816C140.156 46.816 139.012 47.344 138.361 48.1712C137.674 49.016 137.481 50.1248 137.481 51.1808C137.481 53.9088 139.065 58.432 142.533 58.432C143.536 58.432 144.628 57.9392 145.261 57.288Z" fill="black"/>
<path d="M121.692 64.7667C115.231 64.7667 111.781 59.6627 111.781 55.0515C111.781 49.6659 116.129 45.0547 122.308 45.0547C128.275 45.0547 132.025 49.7891 132.025 54.7699C132.025 59.6275 128.328 64.7667 121.692 64.7667ZM126.744 61.4403C127.73 60.1203 127.976 58.4659 127.976 56.8643C127.976 53.2211 126.269 46.2867 121.199 46.2867C119.861 46.2867 118.506 46.8147 117.52 47.6947C115.936 49.1379 115.636 50.9507 115.636 52.7283C115.636 56.8115 117.626 63.5347 122.572 63.5347C124.192 63.5347 125.811 62.7603 126.744 61.4403Z" fill="black"/>
<path d="M100.04 64.7667C93.5791 64.7667 90.1289 59.6627 90.1289 55.0515C90.1289 49.6659 94.4769 45.0547 100.656 45.0547C106.623 45.0547 110.373 49.7891 110.373 54.7699C110.373 59.6275 106.676 64.7667 100.04 64.7667ZM105.092 61.4403C106.077 60.1203 106.324 58.4659 106.324 56.8643C106.324 53.2211 104.599 46.2867 99.5466 46.2867C98.1912 46.2867 96.8533 46.8147 95.8676 47.6947C94.2657 49.1379 93.984 50.9507 93.984 52.7283C93.984 56.8115 95.9908 63.5347 100.92 63.5347C102.539 63.5347 104.159 62.7603 105.092 61.4403Z" fill="black"/>
<path d="M87.4536 63.5533L81.979 64.8205C79.761 65.1725 77.7719 65.4893 75.6595 65.4893C65.0975 65.4717 61.084 57.6573 61.084 51.5325C61.084 44.0701 66.7874 37.1357 76.5396 37.1357C78.5992 37.1357 80.5884 37.4349 82.4015 37.9453C85.2708 38.7549 86.6087 39.7581 87.4536 40.3389L84.2675 43.3837L82.9296 43.6829L83.8802 42.1517C82.5776 40.8845 80.2011 38.5261 75.6947 38.5261C69.6568 38.5261 65.0975 43.1373 65.0975 49.8781C65.0975 57.1117 70.2905 63.9229 78.6344 63.9229C81.0813 63.9229 82.3487 63.4301 83.4929 62.9725V56.7597L77.7191 57.0765L80.782 55.4221H88.8971L87.9113 56.3901C87.6473 56.6189 87.6121 56.6893 87.5241 57.0061C87.4889 57.3581 87.4536 58.4669 87.4536 58.8717V63.5533Z" fill="black"/>
<path d="M189.886 61.5811V71.9827H187.826V45.5299H189.886V48.5395C191.224 46.5859 193.688 45.0547 196.522 45.0547C201.627 45.0547 205.077 48.9443 205.077 55.0867C205.077 61.1939 201.645 65.1539 196.522 65.1539C193.846 65.1539 191.435 63.7635 189.886 61.5811ZM202.965 55.2451C202.965 50.5635 200.553 46.9907 196.258 46.9907C193.6 46.9907 191.048 49.1027 189.939 50.9507V59.5043C191.048 61.3523 193.6 63.5347 196.258 63.5347C200.553 63.5347 202.965 59.9267 202.965 55.2451Z" fill="black"/>
<path d="M207.895 38.1914H210.007V64.7674H207.895V38.1914Z" fill="black"/>
<path d="M232.979 70.1538C233.42 70.3474 234.176 70.4706 234.652 70.4706C235.919 70.4706 236.782 69.9602 237.574 68.1298L239.07 64.7154L230.955 45.4082H233.261L240.214 62.1458L247.115 45.4082H249.438L239.545 68.7634C238.524 71.1746 236.905 72.3362 234.687 72.3362C234.018 72.3362 233.138 72.213 232.627 72.0546L232.979 70.1538Z" fill="black"/>
<path d="M227.153 64.7491C227.012 64.0803 226.906 63.4995 226.836 63.0067C226.766 62.5139 226.73 62.0211 226.73 61.5107C226.026 62.5491 225.023 63.4291 223.72 64.1155C222.435 64.8019 221.203 65.1363 219.531 65.1363C217.506 65.1363 215.94 64.6435 214.831 63.6227C213.722 62.6195 213.158 61.2467 213.158 59.5219C213.158 57.7971 213.968 56.3891 215.587 55.3155C217.207 54.2419 219.302 53.6963 221.889 53.6963H226.713V51.3027C226.713 49.9299 226.237 48.8387 225.304 48.0643C224.371 47.2723 223.051 46.8851 221.344 46.8851C219.777 46.8851 218.51 47.2547 217.541 47.9587C216.591 48.6803 216.098 49.5779 216.098 50.6515H213.986L213.95 50.5459C213.88 49.0851 214.531 47.8179 215.957 46.7091C217.365 45.6003 219.196 45.0547 221.467 45.0547C223.72 45.0547 225.551 45.6003 226.924 46.6915C228.297 47.7651 228.984 49.3315 228.984 51.3555V60.8595C228.984 61.5459 229.019 62.1971 229.107 62.8483C229.195 63.4995 229.336 64.1331 229.512 64.7491H227.153ZM219.795 63.3587C221.555 63.3587 222.822 62.9539 224.107 62.1795C225.392 61.4051 226.255 60.3843 226.713 59.1523V55.4387H221.854C220.006 55.4387 218.474 55.8435 217.26 56.6883C216.045 57.5155 215.447 58.5187 215.447 59.6979C215.447 60.8067 215.834 61.6867 216.608 62.3555C217.401 63.0243 218.457 63.3587 219.795 63.3587Z" fill="black"/>
<path d="M60.3789 20.2939C60.3789 16.5099 63.4067 14.0635 67.1738 14.0635C69.691 14.0635 71.3457 15.1899 72.3843 16.5627L70.536 17.5483C69.8319 16.6507 68.6172 15.9467 67.1738 15.9467C64.6213 15.9467 62.7025 17.7595 62.7025 20.2939C62.7201 22.8107 64.6213 24.6411 67.1738 24.6411C68.494 24.6411 69.6558 24.0779 70.2367 23.5499V21.7019H66.364V19.8363H72.4899V24.3243C71.2225 25.6443 69.4094 26.5243 67.1738 26.5243C63.4067 26.5419 60.3789 24.0779 60.3789 20.2939Z" fill="black"/>
<path d="M75.4297 26.3647V14.2559H84.425V16.1215H77.7357V19.2367H84.2841V21.1199H77.7357V24.4991H84.425V26.3647H75.4297Z" fill="black"/>
<path d="M90.5329 26.3647V16.1215H86.625V14.2559H96.7117V16.1215H92.8037V26.3647H90.5329Z" fill="black"/>
<path d="M104.793 14.2559H106.993V26.3647H104.793V14.2559Z" fill="black"/>
<path d="M113.295 26.3647V16.1215H109.387V14.2559H119.473V16.1215H115.565V26.3647H113.295Z" fill="black"/>
<path d="M127.008 20.3095C127.008 16.7191 129.772 14.0791 133.715 14.0791C137.623 14.0791 140.404 16.7191 140.404 20.3095C140.404 23.8999 137.605 26.5399 133.715 26.5399C129.772 26.5399 127.008 23.8999 127.008 20.3095ZM138.01 20.2039C138.01 17.7399 136.32 15.8919 133.697 15.8919C131.057 15.8919 129.384 17.7399 129.384 20.2039C129.384 22.6503 131.057 24.5159 133.697 24.5159C136.32 24.5159 138.01 22.6679 138.01 20.2039Z" fill="black"/>
<path d="M151.968 26.3647L145.226 17.7055V26.3647H142.955V14.2559H145.279L151.88 22.6511V14.2559H154.151V26.3647H151.968Z" fill="black"/>
<defs>
<linearGradient id="paint0_linear_26_15785" x1="20.3494" y1="45.691" x2="35.2942" y2="67.6265" gradientUnits="userSpaceOnUse">
<stop stop-color="#FF177B"/>
<stop offset="1" stop-color="#FFEC73"/>
</linearGradient>
<linearGradient id="paint1_linear_26_15785" x1="26.7084" y1="14.9897" x2="-0.133986" y2="72.0021" gradientUnits="userSpaceOnUse">
<stop stop-color="#064AA2"/>
<stop offset="1" stop-color="#63FFD4"/>
</linearGradient>
<linearGradient id="paint2_linear_26_15785" x1="34.8376" y1="40.5784" x2="1.79483" y2="60.349" gradientUnits="userSpaceOnUse">
<stop stop-color="#FF4521"/>
<stop offset="1" stop-color="#8A33DB"/>
</linearGradient>
<linearGradient id="paint3_linear_26_15785" x1="15.8854" y1="24.3143" x2="27.7127" y2="55.0626" gradientUnits="userSpaceOnUse">
<stop stop-color="#00A3B5"/>
<stop offset="1" stop-color="#D6FFA1"/>
</linearGradient>
</defs>
</svg>
