<svg width="104" height="104" viewBox="0 0 104 104" fill="none" xmlns="http://www.w3.org/2000/svg">
<path d="M8.67529 52.0088C8.68033 73.3261 24.1817 91.4769 45.2356 94.8178V64.5321H34.242V52.0088H45.2486V42.4754C44.7566 37.9581 46.2996 33.456 49.4591 30.1901C52.6186 26.9243 57.0672 25.2332 61.5983 25.5754C64.8506 25.628 68.0948 25.9176 71.305 26.4421V37.0978H65.8276C63.942 36.8508 62.0462 37.4736 60.6743 38.7907C59.3024 40.1078 58.603 41.9766 58.773 43.8708V52.0088H70.7806L68.861 64.5364H58.773V94.8178C81.5424 91.2194 97.509 70.4245 95.1058 47.4981C92.7026 24.5717 72.7709 7.5398 49.7502 8.74122C26.7295 9.94263 8.67895 28.9568 8.67529 52.0088Z" fill="#373737"/>
</svg>
