<svg width="65" height="52" viewBox="0 0 65 52" fill="none" xmlns="http://www.w3.org/2000/svg">
<path d="M23.3534 47C42.977 47 53.7084 30.8431 53.7084 16.8323C53.7084 16.3734 53.699 15.9166 53.6783 15.4618C55.7614 13.9652 57.5719 12.0975 59 9.97145C57.0884 10.8159 55.0313 11.3843 52.8733 11.6407C55.076 10.328 56.767 8.25157 57.5648 5.77622C55.5035 6.99068 53.2207 7.87335 50.7902 8.3499C48.8434 6.28901 46.0717 5 43.0027 5C37.1111 5 32.3334 9.74834 32.3334 15.6013C32.3334 16.4334 32.427 17.2427 32.6101 18.0189C23.7432 17.5755 15.8806 13.3565 10.6186 6.94106C9.70235 8.50795 9.17403 10.3281 9.17403 12.2702C9.17403 15.9487 11.0575 19.1961 13.9217 21.0959C12.1713 21.0422 10.5271 20.5646 9.08993 19.7698C9.08836 19.8143 9.08835 19.8577 9.08835 19.9052C9.08835 25.0401 12.7658 29.3273 17.6475 30.2988C16.751 30.5417 15.8078 30.6719 14.8343 30.6719C14.1479 30.6719 13.4791 30.6048 12.8292 30.4807C14.1874 34.6935 18.1259 37.7592 22.7954 37.8449C19.1439 40.6893 14.5441 42.3834 9.54483 42.3834C8.68475 42.3834 7.83508 42.3348 7 42.2366C11.7216 45.2444 17.3281 46.9993 23.354 46.9993" fill="#1DA1F2"/>
</svg>
