<svg width="52" height="51" viewBox="0 0 52 51" fill="none" xmlns="http://www.w3.org/2000/svg">
<g clip-path="url(#clip0_26_15642)">
<path d="M44.3065 43.4554H36.6017V31.6211C36.6017 28.7991 36.5504 25.1663 32.5944 25.1663C28.5815 25.1663 27.9675 28.241 27.9675 31.4156V43.4546H20.2627V19.1184H27.6593V22.4442H27.7629C28.5031 21.2029 29.5727 20.1817 30.8579 19.4894C32.143 18.7971 33.5956 18.4597 35.0608 18.5131C42.8699 18.5131 44.3097 23.551 44.3097 30.105L44.3065 43.4554ZM11.5692 15.7918C10.6849 15.792 9.82035 15.5349 9.08498 15.0532C8.34961 14.5714 7.77645 13.8866 7.43789 13.0854C7.09933 12.2841 7.0106 11.4024 7.18296 10.5517C7.35533 9.701 7.78104 8.91953 8.40623 8.30612C9.03143 7.69271 9.82804 7.2749 10.6953 7.10554C11.5626 6.93618 12.4616 7.02286 13.2787 7.35464C14.0958 7.68641 14.7942 8.24836 15.2856 8.96944C15.777 9.69052 16.0394 10.5383 16.0396 11.4057C16.0397 11.9816 15.9241 12.5518 15.6995 13.0839C15.4749 13.616 15.1457 14.0995 14.7306 14.5068C14.3155 14.9141 13.8226 15.2372 13.2802 15.4577C12.7377 15.6782 12.1564 15.7917 11.5692 15.7918ZM15.4216 43.4554H7.70878V19.1184H15.4216V43.4554ZM48.1476 0.00347471H3.83715C2.83142 -0.00765698 1.86229 0.373285 1.14279 1.06259C0.423285 1.7519 0.0122743 2.69317 0 3.67957V47.3197C0.0118542 48.3066 0.422623 49.2485 1.1421 49.9385C1.86158 50.6285 2.83092 51.0102 3.83715 50.9997H48.1476C49.1558 51.0121 50.1279 50.6315 50.8502 49.9415C51.5725 49.2515 51.986 48.3085 52 47.3197V3.67643C51.9856 2.68806 51.5718 1.74572 50.8495 1.05643C50.1271 0.367143 49.1553 -0.0127105 48.1476 0.000324746" fill="#0A66C2"/>
</g>
<defs>
<clipPath id="clip0_26_15642">
<rect width="52" height="51" fill="white"/>
</clipPath>
</defs>
</svg>
