<svg width="18" height="22" viewBox="0 0 18 22" fill="none" xmlns="http://www.w3.org/2000/svg">
<path d="M17.6952 10.9995C17.6952 14.1265 16.654 16.7417 14.5744 18.8452C12.493 20.9487 9.93044 22 6.88488 22H0V0H6.88488C9.93044 0 12.493 1.0513 14.5744 3.15482C16.654 5.25835 17.6952 7.87356 17.6952 10.9995ZM15.1208 10.9995C15.1208 8.5676 14.2817 6.51804 12.6045 4.84899C10.9272 3.17994 8.89471 2.34542 6.50792 2.34542H2.57255V19.6546H6.50792C8.89471 19.6546 10.9272 18.821 12.6045 17.151C14.2826 15.482 15.1208 13.4315 15.1208 10.9995Z" fill="#939393"/>
</svg>
