<svg width="104" height="104" viewBox="0 0 104 104" fill="none" xmlns="http://www.w3.org/2000/svg">
<path d="M56.3333 91H39V39H56.3333V47.6667C60.0281 42.9661 65.6311 40.1638 71.6083 40.027C82.3576 40.0867 91.0312 48.834 91.0001 59.5833V91H73.6667V61.75C72.9735 56.9081 68.821 53.3155 63.9297 53.326C61.7902 53.3936 59.7707 54.3304 58.3372 55.92C56.9038 57.5097 56.1801 59.615 56.3333 61.75V91ZM30.3333 91H13V39H30.3333V91ZM21.6667 30.3333C16.8802 30.3333 13 26.4531 13 21.6667C13 16.8802 16.8802 13 21.6667 13C26.4531 13 30.3333 16.8802 30.3333 21.6667C30.3333 23.9652 29.4202 26.1696 27.7949 27.7949C26.1696 29.4202 23.9652 30.3333 21.6667 30.3333Z" fill="#373737"/>
</svg>
