<svg width="24" height="16" viewBox="0 0 24 16" fill="none" xmlns="http://www.w3.org/2000/svg">
<g clip-path="url(#clip0_5_820)">
<path d="M0 -0.00012207H24V16.0001H0V-0.00012207Z" fill="#D80027"/>
<path d="M12 12.4998C14.4853 12.4998 16.5 10.485 16.5 7.99976C16.5 5.51448 14.4853 3.49976 12 3.49976C9.51472 3.49976 7.5 5.51448 7.5 7.99976C7.5 10.485 9.51472 12.4998 12 12.4998Z" fill="white"/>
<path d="M12.5544 6.2793L13.3264 7.34313L14.5767 6.9377L13.8034 8.00064L14.5754 9.06447L13.3255 8.65755L12.5523 9.72049L12.5531 8.40611L11.3032 7.99914L12.5536 7.59377L12.5544 6.2793Z" fill="#D80027"/>
<path d="M13.0227 10.6589C11.5541 10.6589 10.3637 9.46844 10.3637 7.99985C10.3637 6.53125 11.5541 5.34077 13.0227 5.34077C13.4807 5.34077 13.9115 5.45655 14.2877 5.66041C13.6975 5.08338 12.8906 4.72717 12 4.72717C10.1926 4.72717 8.72729 6.19244 8.72729 7.9999C8.72729 9.80735 10.1926 11.2726 12 11.2726C12.8906 11.2726 13.6976 10.9164 14.2877 10.3394C13.9114 10.5431 13.4807 10.6589 13.0227 10.6589Z" fill="#D80027"/>
</g>
<defs>
<clipPath id="clip0_5_820">
<rect width="24" height="16" fill="white"/>
</clipPath>
</defs>
</svg>
