<svg width="74" height="52" viewBox="0 0 74 52" fill="none" xmlns="http://www.w3.org/2000/svg">
<g clip-path="url(#clip0_26_15644)">
<path d="M40.0148 26.0453C40.0148 33.4428 34.0459 39.4395 26.6834 39.4395C19.3209 39.4395 13.3516 33.4428 13.3516 26.0453C13.3516 18.6479 19.3204 12.6506 26.6834 12.6506C34.0464 12.6506 40.0148 18.6479 40.0148 26.0453Z" fill="black"/>
<path d="M54.64 26.0454C54.64 33.0085 51.6555 38.6554 47.974 38.6554C44.2925 38.6554 41.3081 33.0085 41.3081 26.0454C41.3081 19.0823 44.2921 13.4353 47.9736 13.4353C51.6551 13.4353 54.6395 19.0804 54.6395 26.0454" fill="black"/>
<path d="M60.622 26.0454C60.622 32.2826 59.5725 37.342 58.2776 37.342C56.9826 37.342 55.9336 32.284 55.9336 26.0454C55.9336 19.8068 56.9831 14.7488 58.2776 14.7488C59.5721 14.7488 60.622 19.8064 60.622 26.0454Z" fill="black"/>
</g>
<defs>
<clipPath id="clip0_26_15644">
<rect width="74" height="52" fill="white"/>
</clipPath>
</defs>
</svg>
