<svg width="260" height="88" viewBox="0 0 260 88" fill="none" xmlns="http://www.w3.org/2000/svg">
<path d="M10.5619 0H249.438C255.265 0 260 4.7344 260 10.56V77.44C260 83.2656 255.265 88 249.438 88H10.5619C4.73527 88 0 83.2656 0 77.44V10.56C0 4.7344 4.73527 0 10.5619 0Z" fill="white"/>
<path d="M56.9117 41.9937C56.8589 35.6929 62.0695 32.6305 62.2983 32.4897C59.341 28.1953 54.7641 27.5969 53.1622 27.5441C49.3247 27.1393 45.5928 29.8497 43.6389 29.8497C41.6497 29.8497 38.6219 27.5969 35.3829 27.6497C31.211 27.7201 27.2854 30.1313 25.1555 33.8977C20.737 41.5537 24.0289 52.8177 28.2712 59.0129C30.4012 62.0401 32.8657 65.4369 36.1223 65.3137C39.2909 65.1905 40.4879 63.2897 44.3078 63.2897C48.1101 63.2897 49.2191 65.3137 52.5285 65.2433C55.9435 65.1905 58.0735 62.1985 60.1331 59.1361C62.58 55.6689 63.5657 52.2369 63.601 52.0609C63.5129 52.0257 56.9821 49.5265 56.9117 41.9937Z" fill="black"/>
<path d="M50.6628 23.4787C52.3703 21.3491 53.5321 18.4451 53.2152 15.4883C50.7508 15.5939 47.6526 17.1955 45.8747 19.2899C44.308 21.1379 42.8997 24.1475 43.2518 26.9811C46.0331 27.1923 48.8848 25.5731 50.6628 23.4787Z" fill="black"/>
<path d="M102.891 64.8741H98.4547L96.0254 57.2357H87.5759L85.2698 64.8741H80.957L89.3186 38.8789H94.4939L102.891 64.8741ZM95.3037 54.0325L93.1033 47.2565C92.8744 46.5525 92.4344 44.9333 91.8006 42.3637H91.7126C91.4486 43.4725 91.0437 45.1093 90.4804 47.2565L88.3152 54.0325H95.3037Z" fill="black"/>
<path d="M124.385 55.2814C124.385 58.467 123.523 60.9838 121.78 62.8318C120.231 64.4862 118.294 65.2958 116.006 65.2958C113.524 65.2958 111.746 64.4158 110.655 62.6382V72.4766H106.483V52.2894C106.483 50.283 106.43 48.2414 106.324 46.1294H109.986L110.215 49.1038H110.285C111.676 46.8686 113.788 45.7422 116.605 45.7422C118.823 45.7422 120.653 46.6222 122.132 48.3646C123.646 50.1246 124.385 52.4126 124.385 55.2814ZM120.143 55.4222C120.143 53.5918 119.738 52.0958 118.911 50.9166C118.013 49.6846 116.798 49.0686 115.284 49.0686C114.263 49.0686 113.33 49.4206 112.485 50.0894C111.658 50.7758 111.095 51.6558 110.848 52.7646C110.725 53.275 110.655 53.6974 110.655 54.0318V57.1646C110.655 58.5198 111.077 59.6814 111.904 60.6142C112.732 61.547 113.823 62.0222 115.161 62.0222C116.728 62.0222 117.942 61.4062 118.823 60.2094C119.703 58.995 120.143 57.411 120.143 55.4222Z" fill="black"/>
<path d="M145.932 55.2814C145.932 58.467 145.069 60.9838 143.327 62.8318C141.778 64.4862 139.841 65.2958 137.553 65.2958C135.071 65.2958 133.293 64.4158 132.201 62.6382V72.4766H128.03V52.2894C128.03 50.283 127.977 48.2414 127.871 46.1294H131.533L131.761 49.1038H131.832C133.222 46.8686 135.335 45.7422 138.151 45.7422C140.369 45.7422 142.2 46.6222 143.679 48.3646C145.193 50.1246 145.932 52.4126 145.932 55.2814ZM141.69 55.4222C141.69 53.5918 141.285 52.0958 140.457 50.9166C139.56 49.6846 138.345 49.0686 136.831 49.0686C135.81 49.0686 134.877 49.4206 134.032 50.0894C133.205 50.7758 132.659 51.6558 132.395 52.7646C132.272 53.275 132.201 53.6974 132.201 54.0318V57.1646C132.201 58.5198 132.624 59.6814 133.451 60.6142C134.279 61.547 135.37 62.0222 136.708 62.0222C138.275 62.0222 139.507 61.4062 140.369 60.2094C141.267 58.995 141.69 57.411 141.69 55.4222Z" fill="black"/>
<path d="M170.048 57.5872C170.048 59.8048 169.274 61.6 167.742 62.9904C166.052 64.504 163.694 65.2608 160.666 65.2608C157.867 65.2608 155.631 64.7152 153.941 63.6416L154.91 60.1744C156.74 61.248 158.747 61.7936 160.93 61.7936C162.497 61.7936 163.729 61.4416 164.591 60.7376C165.472 60.0336 165.912 59.0832 165.912 57.904C165.912 56.848 165.542 55.968 164.838 55.2464C164.116 54.5248 162.919 53.856 161.247 53.24C156.652 51.5328 154.381 49.0512 154.381 45.7952C154.381 43.6656 155.191 41.9232 156.793 40.5504C158.395 39.1952 160.525 38.5088 163.183 38.5088C165.542 38.5088 167.514 38.9136 169.08 39.7408L168.024 43.12C166.545 42.328 164.891 41.9232 163.025 41.9232C161.564 41.9232 160.402 42.2928 159.574 42.9968C158.888 43.648 158.536 44.4224 158.536 45.3552C158.536 46.376 158.941 47.2384 159.733 47.8896C160.419 48.5056 161.687 49.1744 163.518 49.896C165.753 50.7936 167.39 51.8496 168.446 53.064C169.52 54.2784 170.048 55.792 170.048 57.5872Z" fill="black"/>
<path d="M183.848 49.2626H179.254V58.3618C179.254 60.6674 180.064 61.829 181.683 61.829C182.422 61.829 183.039 61.7586 183.531 61.6354L183.655 64.8034C182.827 65.1026 181.754 65.261 180.416 65.261C178.761 65.261 177.494 64.7506 176.561 63.7474C175.628 62.7442 175.17 61.0546 175.17 58.6962V49.245H172.441V46.1298H175.17V42.6978L179.254 41.4658V46.1298H183.848V49.2626Z" fill="black"/>
<path d="M204.514 55.3518C204.514 58.2382 203.687 60.5966 202.05 62.4446C200.325 64.3454 198.036 65.2958 195.185 65.2958C192.439 65.2958 190.238 64.3806 188.601 62.5678C186.964 60.755 186.154 58.4494 186.154 55.6686C186.154 52.7646 186.999 50.3886 188.672 48.5406C190.361 46.6926 192.632 45.7598 195.484 45.7598C198.23 45.7598 200.448 46.675 202.12 48.5054C203.722 50.2654 204.514 52.5534 204.514 55.3518ZM200.202 55.4398C200.202 53.715 199.832 52.2542 199.093 51.0222C198.213 49.5262 196.963 48.787 195.343 48.787C193.671 48.787 192.386 49.5262 191.523 51.0222C190.766 52.2542 190.414 53.7502 190.414 55.5278C190.414 57.2526 190.784 58.731 191.523 59.9454C192.421 61.4414 193.688 62.1806 195.308 62.1806C196.892 62.1806 198.142 61.4238 199.057 59.9102C199.814 58.643 200.202 57.1646 200.202 55.4398Z" fill="black"/>
<path d="M218.069 49.7902C217.664 49.7198 217.224 49.6846 216.749 49.6846C215.288 49.6846 214.144 50.2302 213.351 51.339C212.665 52.307 212.313 53.5566 212.313 55.035V64.8734H208.141V52.0254C208.141 49.8606 208.106 47.8894 208.018 46.1294H211.644L211.802 49.7198H211.926C212.366 48.4878 213.052 47.4846 214.003 46.7454C214.936 46.0766 215.939 45.7422 217.013 45.7422C217.4 45.7422 217.752 45.7774 218.051 45.8126L218.069 49.7902Z" fill="black"/>
<path d="M236.694 54.6126C236.694 55.3518 236.641 55.9855 236.535 56.4959H224.037C224.09 58.3439 224.688 59.7695 225.85 60.7375C226.906 61.5999 228.262 62.0399 229.934 62.0399C231.782 62.0399 233.472 61.7407 234.986 61.1599L235.638 64.0463C233.86 64.8207 231.765 65.2079 229.353 65.2079C226.449 65.2079 224.16 64.3455 222.505 62.6383C220.851 60.9311 220.023 58.6255 220.023 55.7566C220.023 52.9406 220.798 50.5823 222.347 48.6991C223.967 46.6927 226.149 45.6895 228.895 45.6895C231.589 45.6895 233.648 46.6927 235.021 48.6991C236.13 50.3183 236.694 52.2718 236.694 54.6126ZM232.715 53.5391C232.751 52.3071 232.469 51.2335 231.906 50.3359C231.184 49.1743 230.075 48.5935 228.596 48.5935C227.241 48.5935 226.132 49.1567 225.287 50.2831C224.6 51.1807 224.178 52.2719 224.055 53.5215L232.715 53.5391Z" fill="black"/>
<path d="M93.2966 29.5862H91.1138L89.9168 25.8374H85.7625L84.6182 29.5862H82.5059L86.6074 16.8086H89.1423L93.2966 29.5862ZM89.5472 24.2534L88.4734 20.9094C88.3677 20.575 88.1565 19.7654 87.822 18.4982H87.7868C87.646 19.0438 87.47 19.8358 87.1707 20.9094L86.1145 24.2534H89.5472Z" fill="black"/>
<path d="M103.577 20.3633L100.092 29.5857H98.1025L94.7227 20.3633H96.9231L98.4898 25.2385C98.7538 26.0481 98.9826 26.8225 99.1587 27.5617H99.2115C99.3699 26.8929 99.5988 26.1185 99.8804 25.2385L101.43 20.3633H103.577Z" fill="black"/>
<path d="M111.006 29.5859L110.848 28.5299H110.795C110.161 29.3747 109.263 29.7971 108.102 29.7971C106.447 29.7971 105.285 28.6355 105.285 27.0867C105.285 24.8163 107.257 23.6371 110.672 23.6371V23.4611C110.672 22.2467 110.02 21.6483 108.753 21.6483C107.838 21.6483 107.045 21.8771 106.341 22.3347L105.919 20.9971C106.764 20.4691 107.838 20.2051 109.087 20.2051C111.499 20.2051 112.714 21.4723 112.714 24.0243V27.4211C112.714 28.3539 112.749 29.0755 112.855 29.6211L111.006 29.5859ZM110.725 24.9923C108.454 24.9923 107.31 25.5379 107.31 26.8579C107.31 27.8259 107.89 28.3011 108.718 28.3011C109.756 28.3011 110.725 27.5091 110.725 26.4179V24.9923Z" fill="black"/>
<path d="M117.273 18.8497C116.587 18.8497 116.059 18.3217 116.059 17.6177C116.059 16.9137 116.604 16.4033 117.308 16.4033C118.013 16.4033 118.576 16.9137 118.558 17.6177C118.558 18.3569 118.03 18.8497 117.273 18.8497ZM116.287 20.3633H118.329V29.5681H116.287V20.3633Z" fill="black"/>
<path d="M121.973 16.1396H124.015V29.5684H121.973V16.1396Z" fill="black"/>
<path d="M132.711 29.5859L132.553 28.5299H132.5C131.866 29.3747 130.969 29.7971 129.807 29.7971C128.152 29.7971 126.99 28.6355 126.99 27.0867C126.99 24.8163 128.962 23.6371 132.377 23.6371V23.4611C132.377 22.2467 131.725 21.6483 130.458 21.6483C129.543 21.6483 128.751 21.8771 128.046 22.3347L127.624 20.9795C128.469 20.4515 129.543 20.1875 130.793 20.1875C133.204 20.1875 134.419 21.4547 134.419 24.0067V27.4035C134.419 28.3363 134.454 29.0579 134.542 29.6035H132.711V29.5859ZM132.43 24.9923C130.159 24.9923 129.015 25.5379 129.015 26.8579C129.015 27.8259 129.596 28.3011 130.423 28.3011C131.461 28.3011 132.43 27.5091 132.43 26.4179V24.9923Z" fill="black"/>
<path d="M142.728 29.7972C141.425 29.7972 140.457 29.2516 139.823 28.1604H139.788L139.665 29.586H137.922C137.975 28.8468 137.992 28.0196 137.992 27.1044V16.1396H140.052V21.7188H140.087C140.703 20.698 141.671 20.1876 143.027 20.1876C145.245 20.1876 146.794 22.0884 146.794 24.8516C146.794 27.7028 145.069 29.7972 142.728 29.7972ZM142.305 21.7892C141.126 21.7892 140.052 22.81 140.052 24.2356V25.8548C140.052 27.122 141.02 28.1604 142.27 28.1604C143.801 28.1604 144.717 26.9108 144.717 24.922C144.717 23.0564 143.766 21.7892 142.305 21.7892Z" fill="black"/>
<path d="M149.82 16.1396H151.862V29.5684H149.82V16.1396Z" fill="black"/>
<path d="M163.006 25.4666H156.862C156.897 27.209 158.059 28.1946 159.767 28.1946C160.682 28.1946 161.509 28.0362 162.249 27.7546L162.566 29.1802C161.703 29.5674 160.682 29.7434 159.485 29.7434C156.598 29.7434 154.891 27.9306 154.891 25.097C154.891 22.281 156.633 20.1514 159.256 20.1514C161.597 20.1514 163.094 21.8938 163.094 24.5338C163.094 24.9034 163.076 25.2202 163.006 25.4666ZM161.14 24.0058C161.14 22.5802 160.418 21.577 159.115 21.577C157.936 21.577 157.021 22.5978 156.88 24.0058H161.14Z" fill="black"/>
<path d="M175.416 29.7971C172.723 29.7971 170.98 27.7907 170.98 25.0627C170.98 22.2115 172.758 20.1875 175.575 20.1875C178.233 20.1875 180.011 22.1059 180.011 24.9043C180.011 27.7731 178.18 29.7971 175.416 29.7971ZM175.505 21.6835C174.026 21.6835 173.075 23.0739 173.075 24.9923C173.075 26.8931 174.043 28.2659 175.487 28.2659C176.93 28.2659 177.899 26.7875 177.899 24.9395C177.881 23.0739 176.948 21.6835 175.505 21.6835Z" fill="black"/>
<path d="M191.013 29.5859H188.971V24.2883C188.971 22.6515 188.338 21.8419 187.106 21.8419C185.891 21.8419 185.064 22.8803 185.064 24.0947V29.5683H183.022V23.0035C183.022 22.1939 183.004 21.3139 182.951 20.3635H184.747L184.835 21.7891H184.888C185.433 20.8035 186.56 20.1699 187.81 20.1699C189.746 20.1699 191.013 21.6483 191.013 24.0595V29.5859Z" fill="black"/>
<path d="M204.408 21.912H202.155V26.3824C202.155 27.5264 202.56 28.0896 203.352 28.0896C203.704 28.0896 204.021 28.0544 204.268 28.0016L204.32 29.5504C203.915 29.7088 203.387 29.7792 202.736 29.7792C201.117 29.7792 200.166 28.8816 200.166 26.5584V21.912H198.828V20.3808H200.166V18.6912L202.173 18.0752V20.3632H204.426V21.912" fill="black"/>
<path d="M215.252 29.5861H213.21V24.3236C213.21 22.6692 212.576 21.842 211.344 21.842C210.288 21.842 209.302 22.5636 209.302 24.0244V29.5684H207.26V16.1396H209.302V21.666H209.337C209.988 20.6628 210.904 20.17 212.101 20.17C214.055 20.17 215.252 21.6836 215.252 24.0948V29.5861Z" fill="black"/>
<path d="M225.709 25.4666H219.565C219.601 27.209 220.762 28.1946 222.47 28.1946C223.385 28.1946 224.213 28.0362 224.952 27.7546L225.269 29.1802C224.406 29.5674 223.385 29.7434 222.188 29.7434C219.301 29.7434 217.594 27.9306 217.594 25.097C217.594 22.281 219.336 20.1514 221.959 20.1514C224.301 20.1514 225.797 21.8938 225.797 24.5338C225.797 24.9034 225.779 25.2202 225.709 25.4666ZM223.843 24.0058C223.843 22.5802 223.121 21.577 221.819 21.577C220.639 21.577 219.706 22.5978 219.583 24.0058H223.843Z" fill="black"/>
</svg>
