<svg width="77" height="79" viewBox="0 0 77 79" fill="none" xmlns="http://www.w3.org/2000/svg">
<path d="M38.4727 0C17.2583 0 0 17.7194 0 39.4995C0 61.2806 17.2583 79 38.4727 79C59.687 79 76.9453 61.2806 76.9453 39.4995C76.9453 17.7194 59.687 0 38.4727 0ZM37.1366 50.8475V62.7319V66.3015C35.7374 67.0952 32.2814 68.5613 28.4056 66.5106L29.2921 65.8881C29.2921 65.8881 25.1109 65.5569 22.3639 62.2306L23.2901 61.5803C23.2901 61.5803 17.8764 56.6463 16.4268 48.7884L17.7881 48.9688C17.7881 48.9688 15.7421 45.7183 15.661 41.159L16.8133 41.5577C16.8133 41.5577 15.5321 37.7707 16.152 33.3751C20.3657 34.3769 23.3378 36.9761 23.3378 36.9761L23.3946 35.7292C27.5029 37.4608 29.7093 40.5975 29.7093 40.5975L30.0399 39.2294C33.3923 41.381 35.6861 44.2319 37.1357 46.5212V50.8475H37.1366ZM39.7745 77.1139V65.7891C39.8538 65.852 39.9006 65.8816 39.9006 65.8816C39.9006 65.8816 44.2432 69.1839 49.2956 66.5115L48.4082 65.889C48.4082 65.889 52.5912 65.556 55.3382 62.2315L54.4102 61.5794C54.4102 61.5794 59.8239 56.6473 61.2753 48.7875L59.9113 48.9688C59.9113 48.9688 61.9574 45.7183 62.0411 41.1608L60.8861 41.5567C60.8861 41.5567 62.1673 37.7698 61.5501 33.3751C57.3347 34.3787 54.3643 36.977 54.3643 36.977L54.3066 35.732C50.1992 37.4627 47.9911 40.5984 47.9911 40.5984L47.6622 39.2304C43.6233 41.8204 41.1151 45.4297 39.7763 47.8468V35.3213C40.7854 35.8976 43.3125 36.9854 46.154 35.4822L45.5081 35.029C45.5081 35.029 48.5559 34.7876 50.5587 32.3622L49.883 31.8877C49.883 31.8877 53.83 28.2903 54.8868 22.5618L53.894 22.6931C53.894 22.6931 55.3859 20.3233 55.4445 17.0007L54.6048 17.2911C54.6048 17.2911 55.5391 14.53 55.0868 11.3258C52.0146 12.0556 49.8479 13.9509 49.8479 13.9509L49.8064 13.0416C46.8117 14.3043 45.2026 16.5909 45.2026 16.5909L44.9621 15.5937C40.1457 18.6832 38.3141 23.7652 38.3141 23.7652L37.6384 23.2916C36.1636 26.0879 37.051 29.0914 37.051 29.0914L36.405 28.6381C36.2492 30.1662 36.6167 31.4446 37.1375 32.4464V35.5451C35.9419 36.1214 33.686 36.8031 31.1877 35.4813L31.8337 35.0281C31.8337 35.0281 28.7849 34.7866 26.783 32.3613L27.4587 31.8867C27.4587 31.8867 23.5117 28.2894 22.4549 22.5609L23.4478 22.6922C23.4478 22.6922 21.9567 20.3223 21.8972 16.9997L22.7369 17.2902C22.7369 17.2902 21.8026 14.529 22.2549 11.3248C25.3271 12.0547 27.4939 13.95 27.4939 13.95L27.5344 13.0407C30.5291 14.3033 32.1382 16.59 32.1382 16.59L32.3796 15.5928C35.7158 17.7342 37.6186 20.8274 38.4736 22.5285V1.85278C58.6924 1.85278 75.1407 18.7415 75.1407 39.4995C75.1398 59.8108 59.3915 76.4063 39.7745 77.1139Z" fill="#005F20"/>
</svg>
