<svg width="208" height="72" viewBox="0 0 208 72" fill="none" xmlns="http://www.w3.org/2000/svg">
<path d="M91.0865 45.3803H80V26.6204H82.263V43.3802H91.0865V45.3803Z" fill="#939393"/>
<path d="M114.447 45.3804H111.958L109.186 39.3246H101.606L98.8337 45.3804H96.3452L105.396 26L114.447 45.3804ZM108.253 37.3245L105.397 31.1267L102.54 37.3245H108.253Z" fill="#939393"/>
<path d="M135.489 45.9999L122.366 31.6622V45.3803H120.104V26.0007L133.226 40.3384V26.6203H135.489V45.9999Z" fill="#939393"/>
<path d="M159.529 36.0003C159.529 38.6668 158.613 40.897 156.785 42.6908C154.956 44.4846 152.703 45.3811 150.026 45.3811H143.973V26.6204H150.026C152.703 26.6204 154.956 27.5169 156.785 29.3107C158.613 31.1045 159.529 33.3346 159.529 36.0003ZM157.266 36.0003C157.266 33.9265 156.528 32.1787 155.054 30.7554C153.579 29.3321 151.792 28.6204 149.694 28.6204H146.235V43.381H149.694C151.792 43.381 153.579 42.6701 155.054 41.2461C156.529 39.8228 157.266 38.0742 157.266 36.0003Z" fill="#939393"/>
<path d="M177.742 45.3803H166.655V26.6204H177.742V28.6204H168.918V34.8737H177.402V36.8738H168.918V43.3802H177.742V45.3803Z" fill="#939393"/>
<path d="M200 45.3803H197.228L191.827 37.6061L186.424 45.3803H183.653L190.441 35.6346L184.162 26.6204H186.933L191.827 33.6059L196.719 26.6204H199.491L193.213 35.6346L200 45.3803Z" fill="#939393"/>
<path d="M36 8C20.5604 8 8 20.5606 8 35.9997C8 51.4394 20.5604 64 36 64C51.4396 64 64 51.4394 64 35.9997C64 20.5606 51.4396 8 36 8ZM35.0276 44.0438V52.4682V54.9986C34.0093 55.5611 31.4941 56.6004 28.6733 55.1467L29.3185 54.7055C29.3185 54.7055 26.2754 54.4707 24.2762 52.1128L24.9503 51.6519C24.9503 51.6519 21.0102 48.1544 19.9552 42.5842L20.946 42.7121C20.946 42.7121 19.4569 40.4079 19.3979 37.176L20.2365 37.4586C20.2365 37.4586 19.3041 34.7742 19.7552 31.6583C22.8219 32.3684 24.985 34.2109 24.985 34.2109L25.0263 33.327C28.0163 34.5545 29.6221 36.778 29.6221 36.778L29.8627 35.8082C32.3026 37.3334 33.9719 39.3542 35.027 40.9771V44.0438H35.0276ZM36.9475 62.663V54.6353C37.0052 54.6799 37.0393 54.7009 37.0393 54.7009C37.0393 54.7009 40.1997 57.0417 43.8768 55.1474L43.231 54.7061C43.231 54.7061 46.2753 54.4701 48.2745 52.1135L47.5992 51.6512C47.5992 51.6512 51.5392 48.155 52.5956 42.5836L51.6028 42.7121C51.6028 42.7121 53.0919 40.4079 53.1529 37.1773L52.3123 37.4579C52.3123 37.4579 53.2447 34.7735 52.7955 31.6583C49.7276 32.3697 47.5657 34.2116 47.5657 34.2116L47.5238 33.329C44.5345 34.5558 42.9274 36.7786 42.9274 36.7786L42.6881 35.8089C39.7486 37.6448 37.9231 40.2034 36.9488 41.9167V33.0379C37.6832 33.4464 39.5224 34.2175 41.5904 33.152L41.1203 32.8307C41.1203 32.8307 43.3385 32.6595 44.7961 30.9403L44.3043 30.6039C44.3043 30.6039 47.1769 28.0539 47.946 23.9932L47.2235 24.0863C47.2235 24.0863 48.3093 22.4064 48.3519 20.0511L47.7408 20.257C47.7408 20.257 48.4208 18.2997 48.0916 16.0284C45.8557 16.5457 44.2788 17.8893 44.2788 17.8893L44.2486 17.2447C42.0691 18.1397 40.898 19.7606 40.898 19.7606L40.7229 19.0538C37.2176 21.2438 35.8846 24.8462 35.8846 24.8462L35.3928 24.5105C34.3195 26.4927 34.9653 28.6217 34.9653 28.6217L34.4952 28.3005C34.3818 29.3837 34.6493 30.2898 35.0283 31V33.1966C34.1582 33.6051 32.5163 34.0883 30.6981 33.1513L31.1682 32.83C31.1682 32.83 28.9493 32.6589 27.4924 30.9396L27.9842 30.6033C27.9842 30.6033 25.1116 28.0533 24.3425 23.9925L25.065 24.0856C25.065 24.0856 23.9799 22.4057 23.9366 20.0504L24.5477 20.2563C24.5477 20.2563 23.8677 18.2991 24.1969 16.0277C26.4328 16.5451 28.0097 17.8886 28.0097 17.8886L28.0392 17.244C30.2188 18.1391 31.3898 19.76 31.3898 19.76L31.5656 19.0531C33.9936 20.5711 35.3784 22.7637 36.0007 23.9696V9.31337C50.7157 9.31337 62.6866 21.2851 62.6866 35.9997C62.686 50.3975 51.2245 62.1614 36.9475 62.663Z" fill="#005F20"/>
<path d="M91.0865 45.3803H80V26.6204H82.263V43.3802H91.0865V45.3803Z" fill="#939393"/>
<path d="M114.447 45.3804H111.958L109.186 39.3246H101.606L98.8337 45.3804H96.3452L105.396 26L114.447 45.3804ZM108.253 37.3245L105.397 31.1267L102.54 37.3245H108.253Z" fill="#939393"/>
<path d="M135.489 45.9999L122.366 31.6622V45.3803H120.104V26.0007L133.226 40.3384V26.6203H135.489V45.9999Z" fill="#939393"/>
<path d="M159.529 36.0003C159.529 38.6668 158.613 40.897 156.785 42.6908C154.956 44.4846 152.703 45.3811 150.026 45.3811H143.973V26.6204H150.026C152.703 26.6204 154.956 27.5169 156.785 29.3107C158.613 31.1045 159.529 33.3346 159.529 36.0003ZM157.266 36.0003C157.266 33.9265 156.528 32.1787 155.054 30.7554C153.579 29.3321 151.792 28.6204 149.694 28.6204H146.235V43.381H149.694C151.792 43.381 153.579 42.6701 155.054 41.2461C156.529 39.8228 157.266 38.0742 157.266 36.0003Z" fill="#939393"/>
<path d="M177.742 45.3803H166.655V26.6204H177.742V28.6204H168.918V34.8737H177.402V36.8738H168.918V43.3802H177.742V45.3803Z" fill="#939393"/>
<path d="M200 45.3803H197.228L191.827 37.6061L186.424 45.3803H183.653L190.441 35.6346L184.162 26.6204H186.933L191.827 33.6059L196.719 26.6204H199.491L193.213 35.6346L200 45.3803Z" fill="#939393"/>
<path d="M36 8C20.5604 8 8 20.5606 8 35.9997C8 51.4394 20.5604 64 36 64C51.4396 64 64 51.4394 64 35.9997C64 20.5606 51.4396 8 36 8ZM35.0276 44.0438V52.4682V54.9986C34.0093 55.5611 31.4941 56.6004 28.6733 55.1467L29.3185 54.7055C29.3185 54.7055 26.2754 54.4707 24.2762 52.1128L24.9503 51.6519C24.9503 51.6519 21.0102 48.1544 19.9552 42.5842L20.946 42.7121C20.946 42.7121 19.4569 40.4079 19.3979 37.176L20.2365 37.4586C20.2365 37.4586 19.3041 34.7742 19.7552 31.6583C22.8219 32.3684 24.985 34.2109 24.985 34.2109L25.0263 33.327C28.0163 34.5545 29.6221 36.778 29.6221 36.778L29.8627 35.8082C32.3026 37.3334 33.9719 39.3542 35.027 40.9771V44.0438H35.0276ZM36.9475 62.663V54.6353C37.0052 54.6799 37.0393 54.7009 37.0393 54.7009C37.0393 54.7009 40.1997 57.0417 43.8768 55.1474L43.231 54.7061C43.231 54.7061 46.2753 54.4701 48.2745 52.1135L47.5992 51.6512C47.5992 51.6512 51.5392 48.155 52.5956 42.5836L51.6028 42.7121C51.6028 42.7121 53.0919 40.4079 53.1529 37.1773L52.3123 37.4579C52.3123 37.4579 53.2447 34.7735 52.7955 31.6583C49.7276 32.3697 47.5657 34.2116 47.5657 34.2116L47.5238 33.329C44.5345 34.5558 42.9274 36.7786 42.9274 36.7786L42.6881 35.8089C39.7486 37.6448 37.9231 40.2034 36.9488 41.9167V33.0379C37.6832 33.4464 39.5224 34.2175 41.5904 33.152L41.1203 32.8307C41.1203 32.8307 43.3385 32.6595 44.7961 30.9403L44.3043 30.6039C44.3043 30.6039 47.1769 28.0539 47.946 23.9932L47.2235 24.0863C47.2235 24.0863 48.3093 22.4064 48.3519 20.0511L47.7408 20.257C47.7408 20.257 48.4208 18.2997 48.0916 16.0284C45.8557 16.5457 44.2788 17.8893 44.2788 17.8893L44.2486 17.2447C42.0691 18.1397 40.898 19.7606 40.898 19.7606L40.7229 19.0538C37.2176 21.2438 35.8846 24.8462 35.8846 24.8462L35.3928 24.5105C34.3195 26.4927 34.9653 28.6217 34.9653 28.6217L34.4952 28.3005C34.3818 29.3837 34.6493 30.2898 35.0283 31V33.1966C34.1582 33.6051 32.5163 34.0883 30.6981 33.1513L31.1682 32.83C31.1682 32.83 28.9493 32.6589 27.4924 30.9396L27.9842 30.6033C27.9842 30.6033 25.1116 28.0533 24.3425 23.9925L25.065 24.0856C25.065 24.0856 23.9799 22.4057 23.9366 20.0504L24.5477 20.2563C24.5477 20.2563 23.8677 18.2991 24.1969 16.0277C26.4328 16.5451 28.0097 17.8886 28.0097 17.8886L28.0392 17.244C30.2188 18.1391 31.3898 19.76 31.3898 19.76L31.5656 19.0531C33.9936 20.5711 35.3784 22.7637 36.0007 23.9696V9.31337C50.7157 9.31337 62.6866 21.2851 62.6866 35.9997C62.686 50.3975 51.2245 62.1614 36.9475 62.663Z" fill="#005F20"/>
</svg>
