<svg width="255" height="164" viewBox="0 0 255 164" fill="none" xmlns="http://www.w3.org/2000/svg">
<path d="M84.5562 158.607L83.7236 158.607L83.7236 159.44L84.5562 159.44L84.5562 158.607ZM255 158.616L246.674 153.809L246.674 163.423L255 158.616ZM84.5568 0.834093L85.3894 0.834097L85.3894 0.00150606L84.5568 0.00149321L84.5568 0.834093ZM84.5562 159.44L247.506 159.448L247.507 157.783L84.5563 157.775L84.5562 159.44ZM4.79051e-05 1.66521L84.5568 1.66669L84.5568 0.00149321L7.54369e-05 1.4642e-05L4.79051e-05 1.66521ZM83.7242 0.83409L83.7236 158.607L85.3888 158.607L85.3894 0.834097L83.7242 0.83409Z" fill="#005F20"/>
</svg>
