<svg width="23" height="28" viewBox="0 0 23 28" fill="none" xmlns="http://www.w3.org/2000/svg">
<path d="M19.0266 14.8903C19.0405 13.8171 19.3255 12.7648 19.8553 11.8314C20.3851 10.8979 21.1424 10.1137 22.0567 9.55156C21.4759 8.722 20.7096 8.0393 19.8187 7.5577C18.9279 7.07609 17.937 6.80884 16.9248 6.77717C14.7656 6.55054 12.6724 8.0692 11.5721 8.0692C10.4505 8.0692 8.75646 6.79968 6.93224 6.83721C5.75228 6.87533 4.60231 7.21846 3.59439 7.83315C2.58647 8.44785 1.75496 9.31315 1.18088 10.3447C-1.30588 14.6502 0.54902 20.9778 2.93114 24.458C4.12296 26.1621 5.51586 28.0657 7.33844 27.9982C9.12194 27.9242 9.78805 26.8609 11.9409 26.8609C14.0737 26.8609 14.6987 27.9982 16.5583 27.9553C18.472 27.9242 19.6778 26.2436 20.8278 24.5233C21.6841 23.309 22.3431 21.967 22.7802 20.5469C21.6684 20.0766 20.7195 19.2895 20.052 18.2836C19.3846 17.2777 19.0279 16.0976 19.0266 14.8903Z" fill="black"/>
<path d="M15.5142 4.48829C16.5577 3.23564 17.0717 1.62557 16.9473 0C15.3531 0.16744 13.8805 0.929361 12.8229 2.13395C12.3058 2.72243 11.9098 3.40704 11.6575 4.14866C11.4051 4.89028 11.3014 5.67436 11.3523 6.45608C12.1497 6.46429 12.9385 6.29146 13.6594 5.95061C14.3804 5.60976 15.0145 5.10976 15.5142 4.48829Z" fill="black"/>
</svg>
