<svg width="286" height="216" viewBox="0 0 286 216" fill="none" xmlns="http://www.w3.org/2000/svg">
<rect x="0.5" y="0.5" width="285" height="215" rx="99.5" stroke="white"/>
<path d="M74.603 161.37H74.5458C73.8308 161.313 73.1158 161.227 72.4008 161.119C72.3069 161.105 72.2166 161.073 72.1351 161.025C72.0535 160.976 71.9823 160.912 71.9256 160.836C71.8688 160.76 71.8276 160.673 71.8042 160.581C71.7809 160.489 71.7758 160.393 71.7895 160.299C71.8031 160.205 71.835 160.114 71.8836 160.032C71.9321 159.951 71.9962 159.879 72.0722 159.823C72.1482 159.766 72.2347 159.724 72.3266 159.701C72.4186 159.678 72.5142 159.672 72.6081 159.686C73.2993 159.786 73.9929 159.865 74.6888 159.923C74.8784 159.93 75.0573 160.013 75.186 160.153C75.3147 160.292 75.3828 160.478 75.3752 160.668C75.3676 160.858 75.285 161.037 75.1455 161.166C75.0061 161.295 74.8212 161.363 74.6316 161.356L74.603 161.37ZM81.753 161.098C81.6591 161.105 81.5647 161.093 81.4753 161.064C81.3858 161.034 81.3031 160.987 81.2317 160.926C81.1603 160.864 81.1017 160.789 81.0593 160.705C81.0169 160.621 80.9914 160.529 80.9844 160.435C80.9773 160.341 80.9888 160.246 81.0183 160.157C81.0477 160.067 81.0944 159.984 81.1559 159.912C81.2173 159.841 81.2921 159.782 81.3762 159.74C81.4602 159.697 81.5518 159.672 81.6457 159.665C82.325 159.557 83.0185 159.421 83.6978 159.256C83.7893 159.235 83.8842 159.232 83.9769 159.248C84.0695 159.263 84.1583 159.297 84.2379 159.347C84.3176 159.397 84.3867 159.462 84.4413 159.538C84.4958 159.615 84.5347 159.702 84.5558 159.794C84.5988 159.978 84.5673 160.172 84.4682 160.333C84.369 160.494 84.2103 160.609 84.0267 160.653C83.3117 160.825 82.5967 160.969 81.8817 161.083L81.753 161.098ZM65.594 159.349C65.5111 159.349 65.4288 159.335 65.3509 159.306C64.6359 159.056 63.9924 158.783 63.3203 158.497C63.2339 158.46 63.1557 158.406 63.0901 158.338C63.0244 158.271 62.9727 158.191 62.9379 158.104C62.903 158.016 62.8857 157.923 62.8869 157.828C62.8881 157.734 62.9078 157.641 62.9449 157.555C62.982 157.468 63.0357 157.39 63.1031 157.324C63.1704 157.258 63.25 157.206 63.3373 157.171C63.4246 157.137 63.5179 157.119 63.6119 157.12C63.7059 157.122 63.7987 157.141 63.8851 157.178C64.5286 157.458 65.1936 157.716 65.8442 157.959C66.0028 158.017 66.136 158.129 66.2201 158.276C66.3042 158.422 66.334 158.594 66.304 158.76C66.2741 158.927 66.1864 159.077 66.0564 159.185C65.9265 159.293 65.7627 159.351 65.594 159.349ZM90.5689 158.246C90.4349 158.246 90.3035 158.209 90.1898 158.138C90.076 158.067 89.9844 157.965 89.9254 157.845C89.8411 157.675 89.8277 157.478 89.888 157.298C89.9483 157.118 90.0775 156.969 90.2472 156.885C90.8692 156.584 91.4913 156.247 92.099 155.896C92.1806 155.849 92.2708 155.818 92.3643 155.806C92.4578 155.793 92.5528 155.8 92.6439 155.824C92.7349 155.849 92.8202 155.891 92.8948 155.949C92.9694 156.007 93.0319 156.079 93.0786 156.161C93.1718 156.326 93.1963 156.52 93.1467 156.703C93.0972 156.885 92.9776 157.041 92.814 157.135C92.1777 157.501 91.527 157.852 90.8835 158.174C90.7768 158.226 90.6589 158.251 90.5403 158.246H90.5689ZM57.2928 155.194C57.1565 155.196 57.0226 155.158 56.9067 155.086C56.299 154.699 55.6912 154.291 55.0978 153.876C54.9425 153.767 54.8365 153.601 54.803 153.415C54.7695 153.228 54.8112 153.036 54.919 152.88C55.0273 152.724 55.1927 152.618 55.379 152.584C55.5653 152.551 55.7573 152.592 55.9129 152.701C56.492 153.109 57.0783 153.496 57.6718 153.876C57.8008 153.959 57.8996 154.082 57.9535 154.226C58.0074 154.37 58.0135 154.528 57.971 154.676C57.9285 154.824 57.8396 154.954 57.7174 155.047C57.5953 155.141 57.4464 155.192 57.2928 155.194ZM98.2623 153.138C98.1585 153.137 98.0561 153.113 97.9623 153.069C97.8684 153.024 97.7854 152.96 97.7189 152.88C97.6579 152.808 97.6115 152.725 97.5824 152.636C97.5534 152.546 97.5421 152.452 97.5494 152.358C97.5568 152.264 97.5824 152.173 97.625 152.089C97.6676 152.005 97.7262 151.931 97.7976 151.869L97.9549 151.705C98.4268 151.296 98.9058 150.874 99.3849 150.429C99.5243 150.3 99.7092 150.232 99.8989 150.239C100.089 150.246 100.268 150.329 100.397 150.469C100.526 150.608 100.594 150.794 100.586 150.984C100.579 151.174 100.497 151.353 100.357 151.483C99.8568 151.941 99.3706 152.378 98.8844 152.794L98.7199 152.93C98.5975 153.052 98.4349 153.126 98.2623 153.138ZM49.8997 149.555C49.7225 149.555 49.5518 149.488 49.4207 149.369C48.8844 148.875 48.3553 148.373 47.8477 147.872C47.7121 147.739 47.6348 147.557 47.6328 147.367C47.6308 147.177 47.7042 146.994 47.837 146.858C47.9697 146.722 48.1509 146.644 48.3406 146.642C48.5303 146.64 48.7131 146.714 48.8487 146.847C49.3492 147.341 49.864 147.829 50.3859 148.28C50.4558 148.344 50.5124 148.421 50.5525 148.506C50.5925 148.592 50.6152 148.685 50.6191 148.78C50.6231 148.874 50.6084 148.969 50.5757 149.058C50.543 149.146 50.4931 149.228 50.4288 149.297C50.364 149.375 50.2832 149.439 50.192 149.483C50.1008 149.528 50.0011 149.552 49.8997 149.555ZM104.89 146.611C104.713 146.61 104.542 146.544 104.411 146.424C104.271 146.297 104.187 146.119 104.178 145.93C104.169 145.74 104.235 145.555 104.361 145.414C104.833 144.891 105.312 144.361 105.791 143.816C105.852 143.741 105.927 143.679 106.012 143.633C106.097 143.588 106.191 143.56 106.287 143.552C106.383 143.544 106.48 143.555 106.572 143.585C106.663 143.615 106.748 143.664 106.82 143.728C106.893 143.792 106.952 143.87 106.993 143.957C107.035 144.044 107.058 144.139 107.062 144.236C107.067 144.332 107.051 144.429 107.017 144.519C106.983 144.61 106.931 144.692 106.864 144.762C106.378 145.314 105.899 145.851 105.434 146.374C105.362 146.444 105.277 146.497 105.183 146.532C105.09 146.567 104.99 146.581 104.89 146.575V146.611ZM43.6149 142.699C43.5063 142.699 43.399 142.675 43.3011 142.628C43.2032 142.581 43.1174 142.512 43.05 142.426C42.5924 141.846 42.1563 141.266 41.7344 140.685C41.6792 140.609 41.6396 140.522 41.618 140.43C41.5964 140.338 41.5931 140.243 41.6084 140.15C41.6237 140.056 41.6572 139.967 41.7071 139.887C41.7569 139.807 41.8221 139.737 41.8989 139.682C42.0527 139.573 42.2435 139.529 42.4297 139.56C42.6159 139.59 42.7823 139.694 42.8927 139.847C43.3074 140.413 43.7293 140.979 44.1726 141.538C44.2557 141.643 44.3076 141.77 44.3223 141.903C44.337 142.037 44.314 142.172 44.2558 142.293C44.1977 142.414 44.1067 142.516 43.9934 142.588C43.8801 142.66 43.7489 142.698 43.6149 142.699ZM110.954 139.525C110.787 139.525 110.625 139.467 110.496 139.36C110.351 139.24 110.259 139.067 110.24 138.879C110.221 138.691 110.277 138.503 110.396 138.357C110.846 137.805 111.297 137.253 111.747 136.687C111.806 136.614 111.879 136.553 111.962 136.507C112.045 136.462 112.135 136.434 112.229 136.424C112.323 136.414 112.417 136.422 112.508 136.449C112.598 136.476 112.682 136.52 112.755 136.58C112.902 136.699 112.995 136.872 113.015 137.059C113.035 137.247 112.98 137.435 112.863 137.583L111.504 139.26C111.438 139.342 111.354 139.408 111.259 139.454C111.163 139.5 111.059 139.524 110.954 139.525ZM38.5241 134.925C38.391 134.921 38.2616 134.88 38.1504 134.807C38.0393 134.734 37.9508 134.63 37.8949 134.509C37.5517 133.843 37.2299 133.177 36.9439 132.532C36.9058 132.446 36.8851 132.353 36.8828 132.259C36.8805 132.165 36.8968 132.071 36.9306 131.983C36.9645 131.895 37.0153 131.815 37.0802 131.747C37.145 131.679 37.2226 131.624 37.3086 131.586C37.3945 131.548 37.4871 131.527 37.581 131.525C37.6749 131.523 37.7684 131.539 37.8561 131.573C37.9437 131.607 38.0239 131.658 38.0919 131.723C38.1599 131.788 38.2144 131.865 38.2524 131.952C38.5312 132.568 38.8387 133.213 39.1676 133.85C39.2107 133.934 39.2368 134.026 39.2443 134.12C39.2518 134.215 39.2406 134.31 39.2113 134.399C39.1821 134.489 39.1354 134.573 39.0739 134.644C39.0124 134.716 38.9373 134.775 38.853 134.817C38.7512 134.87 38.6384 134.897 38.5241 134.896V134.925ZM116.745 132.224C116.612 132.223 116.481 132.186 116.368 132.115C116.255 132.044 116.164 131.943 116.105 131.823C116.046 131.703 116.022 131.569 116.035 131.436C116.049 131.303 116.099 131.176 116.18 131.07L117.496 129.372C117.551 129.291 117.621 129.222 117.704 129.17C117.786 129.117 117.878 129.082 117.975 129.067C118.071 129.051 118.17 129.056 118.264 129.08C118.359 129.104 118.447 129.147 118.525 129.207C118.602 129.267 118.666 129.342 118.713 129.428C118.761 129.513 118.79 129.608 118.799 129.705C118.809 129.802 118.798 129.901 118.768 129.994C118.738 130.087 118.69 130.173 118.626 130.246L117.31 131.944C117.24 132.026 117.154 132.091 117.056 132.134C116.958 132.177 116.852 132.198 116.745 132.195V132.224ZM35.5711 126.134C35.3976 126.136 35.2294 126.074 35.0979 125.961C34.9663 125.847 34.8804 125.69 34.8561 125.518C34.756 124.801 34.6917 124.035 34.6631 123.304C34.6631 123.114 34.7384 122.931 34.8725 122.797C35.0066 122.663 35.1885 122.587 35.3781 122.587C35.5677 122.587 35.7496 122.663 35.8837 122.797C36.0178 122.931 36.0931 123.114 36.0931 123.304C36.1168 123.994 36.1765 124.683 36.2718 125.367C36.2849 125.461 36.2793 125.556 36.2555 125.648C36.2316 125.739 36.1899 125.825 36.1327 125.9C36.0755 125.976 36.0041 126.039 35.9224 126.086C35.8407 126.134 35.7505 126.164 35.6569 126.177L35.5711 126.134ZM122.429 124.837C122.295 124.838 122.164 124.801 122.05 124.731C121.935 124.661 121.843 124.56 121.784 124.439C121.724 124.319 121.699 124.184 121.712 124.051C121.725 123.917 121.776 123.79 121.857 123.683L123.166 121.978C123.284 121.837 123.452 121.746 123.635 121.725C123.818 121.704 124.002 121.755 124.148 121.867C124.295 121.979 124.393 122.143 124.421 122.325C124.45 122.507 124.408 122.694 124.303 122.845L122.98 124.529C122.915 124.614 122.832 124.683 122.736 124.731C122.641 124.78 122.536 124.806 122.429 124.808V124.837ZM240.24 120.896C240.173 120.903 240.106 120.903 240.04 120.896C239.95 120.87 239.865 120.826 239.792 120.767C239.719 120.708 239.658 120.636 239.613 120.553C239.568 120.471 239.539 120.38 239.529 120.286C239.519 120.193 239.527 120.098 239.553 120.008C239.732 119.377 239.925 118.69 240.118 117.952C240.142 117.86 240.183 117.775 240.239 117.699C240.296 117.624 240.367 117.56 240.448 117.512C240.529 117.464 240.618 117.433 240.712 117.42C240.805 117.407 240.9 117.412 240.991 117.436C241.082 117.46 241.168 117.502 241.243 117.559C241.318 117.617 241.38 117.689 241.428 117.771C241.475 117.852 241.505 117.943 241.518 118.037C241.53 118.131 241.523 118.226 241.498 118.317C241.305 119.034 241.112 119.75 240.926 120.402C240.879 120.547 240.787 120.673 240.664 120.762C240.54 120.851 240.392 120.898 240.24 120.896ZM128.078 117.443C127.92 117.443 127.766 117.39 127.642 117.293C127.492 117.176 127.395 117.006 127.371 116.818C127.346 116.63 127.398 116.44 127.513 116.29L128.821 114.584C128.938 114.433 129.11 114.335 129.299 114.311C129.488 114.286 129.679 114.338 129.83 114.455C129.98 114.572 130.079 114.744 130.103 114.934C130.127 115.123 130.075 115.314 129.958 115.466L128.643 117.164C128.574 117.242 128.489 117.304 128.394 117.346C128.299 117.388 128.196 117.409 128.092 117.407L128.078 117.443ZM36.3147 116.934C36.246 116.944 36.1761 116.944 36.1074 116.934C35.9263 116.878 35.7749 116.752 35.6865 116.584C35.598 116.416 35.5796 116.22 35.6355 116.039C35.8428 115.322 36.0931 114.642 36.3505 113.954C36.3815 113.861 36.4312 113.776 36.4964 113.703C36.5616 113.63 36.641 113.572 36.7297 113.531C36.8183 113.49 36.9144 113.468 37.012 113.466C37.1095 113.463 37.2065 113.481 37.2969 113.518C37.3874 113.555 37.4693 113.609 37.5378 113.679C37.6063 113.749 37.6598 113.832 37.695 113.923C37.7303 114.014 37.7465 114.112 37.7428 114.209C37.739 114.307 37.7154 114.403 37.6732 114.491C37.4158 115.143 37.1799 115.802 36.9582 116.454C36.9066 116.581 36.8199 116.69 36.7084 116.768C36.5969 116.847 36.4653 116.892 36.329 116.899L36.3147 116.934ZM242.385 111.79C242.34 111.798 242.294 111.798 242.249 111.79C242.064 111.755 241.899 111.648 241.792 111.493C241.685 111.337 241.644 111.145 241.677 110.959C241.806 110.242 241.927 109.569 242.049 108.853C242.064 108.758 242.098 108.668 242.148 108.587C242.199 108.506 242.264 108.436 242.342 108.381C242.419 108.325 242.507 108.285 242.599 108.264C242.692 108.242 242.788 108.239 242.882 108.254C242.976 108.27 243.066 108.304 243.146 108.354C243.227 108.404 243.297 108.47 243.353 108.548C243.408 108.625 243.448 108.713 243.47 108.806C243.491 108.899 243.494 108.995 243.479 109.089C243.357 109.805 243.236 110.522 243.107 111.238C243.069 111.4 242.976 111.543 242.845 111.644C242.713 111.744 242.55 111.796 242.385 111.79ZM133.798 110.049C133.663 110.05 133.531 110.012 133.417 109.941C133.302 109.87 133.21 109.768 133.151 109.647C133.092 109.525 133.069 109.39 133.083 109.256C133.098 109.122 133.149 108.994 133.233 108.888L134.57 107.197C134.628 107.121 134.7 107.056 134.783 107.008C134.866 106.96 134.957 106.929 135.052 106.917C135.147 106.905 135.244 106.912 135.336 106.938C135.428 106.964 135.514 107.009 135.589 107.069C135.664 107.129 135.725 107.203 135.771 107.288C135.816 107.372 135.845 107.465 135.854 107.56C135.863 107.656 135.852 107.752 135.823 107.844C135.795 107.935 135.748 108.02 135.685 108.093L134.356 109.777C134.29 109.859 134.208 109.927 134.114 109.974C134.02 110.021 133.917 110.046 133.812 110.049H133.798ZM40.569 108.659C40.4167 108.658 40.2689 108.607 40.1471 108.516C39.9964 108.403 39.8961 108.235 39.868 108.049C39.8398 107.862 39.8862 107.672 39.997 107.52C40.426 106.94 40.8836 106.359 41.3555 105.793C41.4778 105.648 41.6527 105.557 41.8418 105.541C42.0309 105.525 42.2186 105.585 42.3636 105.707C42.5087 105.83 42.5992 106.005 42.6153 106.195C42.6314 106.384 42.5717 106.572 42.4494 106.717C41.9918 107.255 41.5557 107.814 41.1481 108.365C41.0816 108.457 40.9944 108.531 40.8937 108.582C40.7931 108.633 40.6818 108.659 40.569 108.659ZM139.632 102.777C139.468 102.776 139.309 102.717 139.182 102.612C139.037 102.492 138.945 102.319 138.926 102.131C138.907 101.943 138.963 101.756 139.082 101.609L140.447 99.9468C140.506 99.8729 140.578 99.8113 140.66 99.7654C140.742 99.7195 140.832 99.6902 140.925 99.6792C141.018 99.6682 141.113 99.6758 141.203 99.7014C141.294 99.727 141.378 99.7703 141.452 99.8286C141.526 99.8869 141.587 99.9592 141.633 100.041C141.679 100.124 141.708 100.214 141.719 100.307C141.73 100.401 141.722 100.496 141.697 100.586C141.671 100.677 141.628 100.761 141.57 100.835L140.211 102.49C140.144 102.58 140.057 102.653 139.956 102.703C139.855 102.753 139.744 102.778 139.632 102.777ZM243.643 102.562H243.586C243.398 102.547 243.222 102.458 243.099 102.315C242.976 102.171 242.914 101.984 242.928 101.795C242.985 101.079 243.028 100.362 243.071 99.6459C243.071 99.5487 243.091 99.4525 243.129 99.3632C243.167 99.2738 243.223 99.1932 243.293 99.1262C243.363 99.0592 243.446 99.0071 243.537 98.9733C243.628 98.9395 243.725 98.9246 243.822 98.9294C244.01 98.9405 244.187 99.0258 244.313 99.1668C244.439 99.3077 244.504 99.4928 244.494 99.6817C244.458 100.398 244.408 101.115 244.351 101.831C244.353 101.926 244.336 102.02 244.302 102.108C244.267 102.196 244.215 102.277 244.149 102.344C244.083 102.412 244.005 102.467 243.918 102.504C243.831 102.541 243.738 102.561 243.643 102.562ZM47.0183 101.953C46.87 101.954 46.7251 101.908 46.6038 101.822C46.4825 101.737 46.3907 101.616 46.3412 101.476C46.2917 101.335 46.287 101.183 46.3276 101.04C46.3682 100.897 46.4521 100.771 46.5678 100.678C47.6332 99.8178 48.3196 99.3593 48.3482 99.3378C48.5065 99.237 48.698 99.2026 48.8814 99.2421C49.0649 99.2815 49.2255 99.3915 49.3286 99.5485C49.4318 99.7055 49.4693 99.8968 49.433 100.081C49.3968 100.266 49.2896 100.428 49.1347 100.534C49.1347 100.534 48.4697 100.979 47.4687 101.788C47.3382 101.897 47.1735 101.955 47.004 101.953H47.0183ZM145.638 95.6408C145.502 95.6395 145.369 95.5992 145.255 95.5248C145.141 95.4505 145.051 95.345 144.994 95.2209C144.938 95.0967 144.918 94.9591 144.937 94.824C144.956 94.689 145.014 94.5623 145.102 94.4586C145.567 93.9141 146.039 93.3696 146.532 92.8323C146.593 92.7569 146.668 92.6947 146.753 92.6492C146.838 92.6038 146.932 92.5761 147.028 92.5678C147.124 92.5596 147.221 92.5709 147.312 92.6011C147.404 92.6314 147.489 92.6799 147.561 92.7438C147.634 92.8077 147.692 92.8857 147.734 92.9729C147.776 93.0602 147.799 93.155 147.803 93.2516C147.807 93.3483 147.792 93.4447 147.758 93.5352C147.723 93.6256 147.671 93.7082 147.604 93.778C147.133 94.3153 146.661 94.8527 146.174 95.3972C146.106 95.4755 146.021 95.5378 145.926 95.5799C145.831 95.622 145.728 95.6428 145.624 95.6408H145.638ZM243.815 93.2478C243.632 93.2481 243.457 93.1786 243.324 93.0534C243.191 92.9282 243.111 92.7568 243.1 92.5743C243.057 91.8579 243.007 91.1414 242.943 90.4249C242.926 90.2349 242.984 90.0459 243.106 89.8994C243.229 89.753 243.404 89.6611 243.593 89.644C243.783 89.6269 243.971 89.6859 244.118 89.8082C244.264 89.9305 244.355 90.1059 244.373 90.296C244.437 91.0124 244.494 91.7289 244.53 92.4454C244.53 92.6282 244.461 92.8042 244.336 92.9374C244.211 93.0706 244.04 93.1509 243.858 93.1618L243.815 93.2478ZM151.866 88.6982C151.685 88.6976 151.512 88.6285 151.38 88.5048C151.242 88.3753 151.16 88.1964 151.154 88.0071C151.147 87.8177 151.215 87.6335 151.344 87.4946C151.83 86.9644 152.323 86.4413 152.817 85.9255C152.95 85.8031 153.125 85.7358 153.305 85.7372C153.486 85.7386 153.66 85.8085 153.791 85.9329C153.922 86.0572 154.002 86.2269 154.013 86.4076C154.025 86.5884 153.968 86.7668 153.854 86.907L152.424 88.469C152.35 88.5494 152.259 88.612 152.157 88.6517C152.055 88.6914 151.946 88.7074 151.837 88.6982H151.866ZM242.521 84.034C242.357 84.0388 242.197 83.9873 242.067 83.8883C241.937 83.7892 241.845 83.6484 241.806 83.4895C241.641 82.773 241.463 82.1067 241.262 81.4475C241.236 81.3572 241.228 81.2626 241.238 81.1691C241.248 81.0755 241.277 80.9849 241.322 80.9024C241.367 80.8199 241.428 80.7471 241.501 80.6882C241.574 80.6293 241.658 80.5855 241.749 80.5591C241.93 80.5056 242.124 80.5261 242.291 80.616C242.457 80.7059 242.581 80.8581 242.635 81.0392C242.835 81.7556 243.028 82.4363 243.2 83.1527C243.222 83.2445 243.226 83.3398 243.212 83.4331C243.197 83.5264 243.165 83.6159 243.115 83.6965C243.066 83.777 243.002 83.8471 242.925 83.9025C242.849 83.958 242.763 83.9978 242.671 84.0197L242.521 84.034ZM158.351 82.0207C158.21 82.0201 158.071 81.9775 157.954 81.8983C157.837 81.8191 157.746 81.7068 157.692 81.5757C157.639 81.4445 157.625 81.3004 157.653 81.1616C157.681 81.0227 157.75 80.8953 157.85 80.7956L159.402 79.291C159.468 79.2238 159.548 79.1705 159.635 79.1341C159.722 79.0978 159.815 79.079 159.91 79.079C160.004 79.079 160.097 79.0978 160.185 79.1341C160.272 79.1705 160.351 79.2238 160.417 79.291C160.55 79.4252 160.625 79.6068 160.625 79.7961C160.625 79.9854 160.55 80.1669 160.417 80.3012C159.902 80.7884 159.395 81.2899 158.88 81.7914C158.809 81.868 158.723 81.9283 158.626 81.9679C158.53 82.0075 158.426 82.0255 158.322 82.0207H158.351ZM165.193 75.7014C165.048 75.7012 164.907 75.6568 164.787 75.5739C164.668 75.4911 164.577 75.3739 164.526 75.2378C164.474 75.1017 164.466 74.9532 164.501 74.8121C164.536 74.6709 164.613 74.5438 164.722 74.4476L166.366 73.0147C166.512 72.8921 166.701 72.8327 166.89 72.8495C167.08 72.8663 167.255 72.9579 167.378 73.1042C167.5 73.2506 167.559 73.4396 167.543 73.6297C167.526 73.8198 167.434 73.9955 167.288 74.118C166.745 74.5694 166.202 75.0351 165.658 75.5008C165.526 75.6289 165.349 75.7007 165.165 75.7014H165.193ZM239.31 75.3217C239.18 75.3207 239.053 75.2841 238.942 75.2159C238.831 75.1478 238.741 75.0506 238.681 74.9348C238.352 74.3115 238.009 73.6953 237.644 73.1007C237.547 72.9381 237.518 72.7435 237.564 72.5596C237.609 72.3756 237.726 72.2172 237.888 72.1191C238.05 72.0216 238.244 71.9925 238.428 72.0381C238.611 72.0838 238.769 72.2005 238.867 72.3627C239.246 72.9789 239.582 73.6237 239.947 74.2685C240.005 74.3781 240.034 74.5009 240.03 74.625C240.027 74.7491 239.991 74.8702 239.927 74.9763C239.863 75.0825 239.773 75.1702 239.664 75.2307C239.556 75.2913 239.434 75.3226 239.31 75.3217ZM172.458 69.8909C172.345 69.8912 172.234 69.8647 172.133 69.8136C172.032 69.7626 171.945 69.6884 171.879 69.5971C171.823 69.5214 171.782 69.4354 171.76 69.344C171.737 69.2526 171.732 69.1575 171.746 69.0644C171.76 68.9712 171.792 68.8817 171.841 68.801C171.889 68.7203 171.953 68.65 172.029 68.5941C172.615 68.1642 173.201 67.7486 173.788 67.3331C173.865 67.279 173.952 67.2406 174.043 67.2201C174.135 67.1997 174.23 67.1975 174.323 67.2138C174.415 67.2301 174.504 67.2646 174.583 67.3151C174.663 67.3657 174.731 67.4315 174.785 67.5086C174.839 67.5858 174.878 67.6728 174.898 67.7648C174.918 67.8568 174.92 67.9519 174.904 68.0447C174.888 68.1375 174.854 68.2262 174.803 68.3057C174.753 68.3852 174.687 68.454 174.61 68.5081L172.88 69.7476C172.75 69.8451 172.591 69.8956 172.429 69.8909H172.458ZM233.876 67.8131C233.782 67.8127 233.688 67.7935 233.601 67.7566C233.514 67.7197 233.435 67.6659 233.369 67.5982C232.892 67.1205 232.384 66.6429 231.846 66.1652C231.704 66.0397 231.617 65.8628 231.605 65.6734C231.593 65.484 231.656 65.2976 231.781 65.155C231.907 65.0126 232.083 64.9259 232.272 64.9138C232.461 64.9017 232.647 64.9653 232.79 65.0905C233.333 65.5706 233.869 66.0792 234.384 66.6023C234.517 66.7365 234.592 66.9181 234.592 67.1074C234.592 67.2967 234.517 67.4783 234.384 67.6125C234.313 67.6811 234.229 67.7344 234.137 67.7689C234.045 67.8034 233.946 67.8185 233.848 67.8131H233.876ZM180.251 64.7753C180.125 64.7758 180.002 64.7429 179.892 64.68C179.783 64.6171 179.692 64.5264 179.629 64.417C179.536 64.2534 179.51 64.0593 179.558 63.8768C179.606 63.6944 179.724 63.5383 179.887 63.4426C180.516 63.0772 181.145 62.7262 181.774 62.3823C181.856 62.3352 181.947 62.3048 182.041 62.2929C182.135 62.2809 182.23 62.2876 182.321 62.3126C182.413 62.3375 182.498 62.3802 182.573 62.4383C182.648 62.4964 182.711 62.5686 182.757 62.6509C182.804 62.7333 182.835 62.8241 182.847 62.9181C182.859 63.0122 182.852 63.1077 182.827 63.1991C182.802 63.2906 182.759 63.3763 182.702 63.4513C182.644 63.5262 182.571 63.589 182.489 63.6361C181.867 63.9728 181.252 64.3526 180.637 64.6821C180.5 64.7636 180.339 64.7964 180.18 64.7753H180.251ZM226.498 62.2533C226.377 62.2537 226.258 62.2215 226.154 62.1601C225.554 61.8306 224.925 61.5082 224.281 61.2072C224.196 61.1668 224.12 61.11 224.057 61.04C223.994 60.97 223.945 60.8883 223.914 60.7995C223.882 60.7107 223.868 60.6165 223.873 60.5223C223.878 60.4282 223.901 60.3359 223.941 60.2508C223.982 60.1656 224.039 60.0893 224.108 60.0261C224.178 59.9629 224.26 59.9141 224.348 59.8825C224.437 59.8509 224.531 59.8371 224.625 59.8419C224.719 59.8467 224.811 59.87 224.896 59.9104C225.561 60.2257 226.212 60.5624 226.841 60.9063C226.981 60.9822 227.092 61.1029 227.156 61.2493C227.22 61.3957 227.233 61.5592 227.194 61.7141C227.155 61.8689 227.065 62.0061 226.938 62.1038C226.812 62.2015 226.657 62.2541 226.498 62.2533ZM188.567 60.6627C188.4 60.6631 188.239 60.6053 188.11 60.4991C187.982 60.3929 187.894 60.2451 187.863 60.0812C187.831 59.9172 187.858 59.7475 187.938 59.6012C188.019 59.4549 188.147 59.3413 188.302 59.2799C188.974 59.0077 189.646 58.7498 190.326 58.5062C190.502 58.4477 190.695 58.4606 190.862 58.5422C191.03 58.6237 191.159 58.7674 191.222 58.9428C191.285 59.1182 191.278 59.3114 191.201 59.4814C191.125 59.6514 190.985 59.7847 190.812 59.8531C190.154 60.0896 189.496 60.3403 188.839 60.6126C188.734 60.655 188.622 60.6722 188.51 60.6627H188.567ZM217.918 58.7283C217.849 58.7352 217.779 58.7352 217.71 58.7283C217.038 58.5276 216.352 58.3414 215.672 58.1837C215.483 58.1391 215.319 58.0208 215.216 57.8548C215.114 57.6889 215.081 57.4889 215.126 57.2989C215.17 57.1089 215.288 56.9444 215.454 56.8416C215.619 56.7388 215.819 56.7061 216.009 56.7508C216.724 56.9228 217.439 57.109 218.154 57.3168C218.343 57.3434 218.514 57.4444 218.63 57.5976C218.745 57.7508 218.795 57.9436 218.768 58.1336C218.742 58.3236 218.641 58.4953 218.488 58.6108C218.335 58.7264 218.143 58.7764 217.953 58.7498L217.918 58.7283ZM197.34 57.933C197.174 57.9367 197.011 57.8822 196.881 57.7789C196.75 57.6756 196.66 57.5299 196.625 57.367C196.605 57.2742 196.604 57.1785 196.621 57.0853C196.638 56.9921 196.674 56.9032 196.726 56.8239C196.778 56.7446 196.845 56.6764 196.923 56.6233C197.002 56.5701 197.09 56.5331 197.183 56.5144C197.898 56.3711 198.613 56.2349 199.328 56.1275C199.517 56.098 199.711 56.1453 199.866 56.2588C200.02 56.3723 200.124 56.5429 200.153 56.7329C200.183 56.9229 200.136 57.1168 200.022 57.272C199.909 57.4272 199.739 57.531 199.549 57.5604C198.834 57.6679 198.169 57.7968 197.476 57.9401C197.43 57.9441 197.385 57.9417 197.34 57.933ZM208.73 57.1305H208.68C207.965 57.0875 207.25 57.0589 206.578 57.0517C206.388 57.0517 206.206 56.9762 206.072 56.8419C205.938 56.7075 205.863 56.5253 205.863 56.3352C205.863 56.1452 205.938 55.963 206.072 55.8286C206.206 55.6943 206.388 55.6188 206.578 55.6188C207.293 55.6188 208.008 55.6546 208.758 55.6976C208.948 55.7033 209.128 55.7842 209.258 55.9226C209.388 56.061 209.458 56.2455 209.452 56.4356C209.446 56.6256 209.366 56.8055 209.227 56.9359C209.089 57.0662 208.905 57.1362 208.716 57.1305H208.73Z" fill="#9A7C7C"/>
<path d="M194.223 169.996H112.076L128.3 37.5781H201.558L209.209 47.7019L194.223 169.996Z" fill="#B0CDBA"/>
<path d="M185.335 169.996H103.182L119.405 37.5781H201.558L185.335 169.996Z" fill="#9A7C7C"/>
<path d="M181.288 144.87H112.648L124.353 49.3855H192.993L181.288 144.87Z" fill="white"/>
<path d="M158.137 103.185L177.971 103.422L177.585 106.495L158.137 106.159V103.185Z" fill="#9A7C7C"/>
<path d="M103.182 169.996L113.063 179.138L192.993 180.356L194.223 169.996H103.182Z" fill="#B0CDBA"/>
<path d="M166.595 75.2214C166.595 75.2214 170.02 75.465 171.772 81.9204C173.523 88.3758 172.923 106.395 172.923 106.395L158.151 106.159C158.151 106.159 150.779 79.3411 166.595 75.2214Z" fill="#24285B"/>
<path d="M95.6093 36.5223L41.8789 80.2621L70.0787 115.046L123.809 71.306L95.6093 36.5223Z" fill="#FFD200"/>
<path d="M95.3184 46.1463L71.2612 65.7302L75.9184 71.4747L99.9755 51.8907L95.3184 46.1463Z" fill="white"/>
<path opacity="0.46" d="M76.1641 90.2918L67.5623 97.2942C66.3915 98.2473 66.2134 99.971 67.1646 101.144L68.3773 102.64C69.3285 103.813 71.0486 103.992 72.2194 103.039L80.8212 96.0363C81.992 95.0832 82.1701 93.3595 81.2189 92.1863L80.0062 90.6904C79.055 89.5172 77.3349 89.3387 76.1641 90.2918Z" fill="white"/>
<path opacity="0.46" d="M107.595 64.7094L83.616 84.2301C82.4452 85.1832 82.2671 86.9069 83.2183 88.0801L84.431 89.576C85.3822 90.7492 87.1024 90.9276 88.2731 89.9745L112.253 70.4538C113.423 69.5007 113.601 67.777 112.65 66.6038L111.438 65.1079C110.486 63.9347 108.766 63.7563 107.595 64.7094Z" fill="white"/>
<path opacity="0.3" d="M58.5444 86.2193C61.2454 86.2193 63.435 84.0252 63.435 81.3186C63.435 78.6121 61.2454 76.418 58.5444 76.418C55.8434 76.418 53.6538 78.6121 53.6538 81.3186C53.6538 84.0252 55.8434 86.2193 58.5444 86.2193Z" fill="white"/>
<path opacity="0.3" d="M63.5063 81.7557C66.2073 81.7557 68.3969 79.5616 68.3969 76.855C68.3969 74.1484 66.2073 71.9543 63.5063 71.9543C60.8053 71.9543 58.6157 74.1484 58.6157 76.855C58.6157 79.5616 60.8053 81.7557 63.5063 81.7557Z" fill="white"/>
<path d="M166.595 75.2214C166.595 75.2214 158.823 78.0228 161.533 99.9683C163.521 116.046 156.807 137.332 146.883 137.59C136.958 137.848 118.654 136.974 118.654 136.974C118.654 136.974 128.185 112.256 126.212 91.4996C125.909 88.5938 126.255 85.6567 127.227 82.902C128.385 79.7424 130.538 76.4538 134.542 75.9164C142.535 74.8274 166.595 75.2214 166.595 75.2214Z" fill="#005F20"/>
<path d="M113.156 138.579L148.227 137.863C148.227 137.863 142.878 132.546 142.542 119.012L94.3013 119.729C95.1281 123.221 96.3993 126.592 98.0836 129.759C99.5406 132.479 101.719 134.741 104.379 136.298C107.039 137.854 110.076 138.644 113.156 138.579Z" fill="#005F20"/>
<path opacity="0.44" d="M113.156 138.579L148.227 137.863C148.227 137.863 142.878 132.546 142.542 119.012L94.3013 119.729C95.1281 123.221 96.3993 126.592 98.0836 129.759C99.5406 132.479 101.719 134.741 104.379 136.298C107.039 137.854 110.076 138.644 113.156 138.579Z" fill="white"/>
<path d="M138.789 56.278L137.566 64.3239H173.008L174.081 56.278H138.789Z" fill="#24285B"/>
<path opacity="0.48" d="M148.548 151.311C144.723 147.958 138.674 148.617 135.972 152.937C135.289 153.987 134.92 155.209 134.906 156.462C134.906 161.764 138.56 165.239 145.86 163.777C151.43 162.66 153.553 155.688 148.548 151.311Z" fill="white"/>
<path d="M229.729 170.233C240.62 170.233 249.449 161.386 249.449 150.472C249.449 139.559 240.62 130.712 229.729 130.712C218.839 130.712 210.01 139.559 210.01 150.472C210.01 161.386 218.839 170.233 229.729 170.233Z" fill="#FFD200"/>
<path opacity="0.09" d="M229.729 170.233C240.62 170.233 249.449 161.386 249.449 150.472C249.449 139.559 240.62 130.712 229.729 130.712C218.839 130.712 210.01 139.559 210.01 150.472C210.01 161.386 218.839 170.233 229.729 170.233Z" fill="black"/>
<path d="M230.623 164.881C241.514 164.881 250.343 156.034 250.343 145.12C250.343 134.207 241.514 125.36 230.623 125.36C219.732 125.36 210.903 134.207 210.903 145.12C210.903 156.034 219.732 164.881 230.623 164.881Z" fill="#FFD200"/>
<path d="M233.447 133.234C234.105 133.342 234.27 133.607 234.162 134.266L233.926 135.699C236.5 136.508 237.795 138.085 238.524 140.571C238.753 141.287 238.524 141.667 237.716 141.882L236.207 142.276C235.492 142.484 235.206 142.276 234.949 141.559C234.774 140.797 234.36 140.111 233.766 139.602C233.173 139.094 232.432 138.791 231.653 138.737C229.222 138.328 227.985 138.858 227.706 140.492C227.534 141.552 228.421 142.376 229.365 142.749C230.02 143.01 230.691 143.23 231.374 143.408C232.662 143.691 233.902 144.159 235.056 144.798C235.636 145.092 236.157 145.49 236.593 145.973C237.014 146.596 237.306 147.298 237.451 148.037C237.596 148.775 237.591 149.535 237.437 150.272C236.915 153.396 234.47 155.172 230.687 155.094L230.437 156.591C230.323 157.25 230.087 157.444 229.429 157.308L227.849 157.042C227.191 156.928 227.005 156.663 227.134 156.004L227.377 154.571C224.574 153.711 222.901 151.927 222.372 149.183C222.25 148.516 222.551 148.122 223.259 147.979L224.746 147.692C225.504 147.556 225.79 147.786 225.983 148.552C226.347 150.265 227.499 151.289 229.451 151.612C232.082 152.056 233.54 151.447 233.826 149.749C233.912 149.361 233.867 148.955 233.697 148.596C233.527 148.236 233.243 147.944 232.89 147.764C232.029 147.292 231.104 146.947 230.144 146.74C228.841 146.448 227.593 145.95 226.448 145.264C225.878 144.949 225.369 144.534 224.946 144.038C224.518 143.444 224.217 142.768 224.063 142.051C223.909 141.335 223.906 140.594 224.052 139.876C224.567 136.781 226.862 135.04 230.609 135.169L230.845 133.736C230.952 133.076 231.224 132.89 231.882 133.019L233.447 133.234Z" fill="white"/>
<path d="M132.825 84.1344C132.732 84.1377 132.638 84.1224 132.55 84.0894C132.462 84.0565 132.381 84.0064 132.313 83.9422C132.244 83.878 132.188 83.8009 132.149 83.7152C132.11 83.6296 132.089 83.537 132.085 83.443C132.082 83.3489 132.097 83.2551 132.13 83.1669C132.163 83.0787 132.213 82.9979 132.277 82.929C132.341 82.8601 132.418 82.8046 132.504 82.7656C132.589 82.7265 132.681 82.7047 132.775 82.7014C132.926 82.7014 147.876 81.598 155.891 82.3145C156.081 82.3316 156.256 82.4235 156.378 82.57C156.5 82.7164 156.559 82.9055 156.542 83.0955C156.525 83.2855 156.433 83.4609 156.287 83.5832C156.141 83.7055 155.952 83.7646 155.763 83.7475C147.898 83.031 133.026 84.1129 132.883 84.1272L132.825 84.1344Z" fill="white"/>
<path d="M131.638 93.8282C131.545 93.8315 131.451 93.8162 131.363 93.7833C131.275 93.7503 131.194 93.7003 131.126 93.6361C130.987 93.5064 130.905 93.3268 130.898 93.1368C130.892 92.9468 130.961 92.7619 131.09 92.6229C131.22 92.4838 131.399 92.4019 131.588 92.3953C131.739 92.3953 146.689 91.2919 154.704 92.0084C154.894 92.0255 155.069 92.1174 155.191 92.2638C155.313 92.4103 155.372 92.5993 155.355 92.7893C155.338 92.9794 155.246 93.1548 155.1 93.2771C154.954 93.3993 154.765 93.4584 154.576 93.4413C146.711 92.7248 131.846 93.8139 131.696 93.8211L131.638 93.8282Z" fill="white"/>
<path d="M131.503 103.902C131.313 103.909 131.128 103.841 130.989 103.712C130.85 103.583 130.767 103.404 130.759 103.214C130.752 103.024 130.82 102.839 130.949 102.699C131.077 102.559 131.256 102.476 131.446 102.469C131.596 102.469 146.554 101.366 154.562 102.082C154.656 102.09 154.747 102.117 154.83 102.161C154.914 102.205 154.988 102.265 155.048 102.337C155.109 102.41 155.154 102.494 155.183 102.584C155.211 102.674 155.221 102.769 155.212 102.863C155.204 102.957 155.177 103.049 155.133 103.132C155.09 103.216 155.03 103.29 154.957 103.351C154.885 103.411 154.801 103.457 154.712 103.485C154.622 103.513 154.527 103.523 154.433 103.515C146.568 102.798 131.703 103.887 131.553 103.895L131.503 103.902Z" fill="white"/>
<path d="M130.552 113.975C130.458 113.979 130.364 113.963 130.276 113.93C130.188 113.897 130.108 113.847 130.039 113.783C129.97 113.719 129.915 113.642 129.876 113.556C129.837 113.471 129.815 113.378 129.812 113.284C129.809 113.19 129.824 113.096 129.857 113.008C129.89 112.92 129.94 112.839 130.004 112.77C130.068 112.701 130.145 112.646 130.23 112.607C130.316 112.568 130.408 112.546 130.502 112.542C130.652 112.542 145.603 111.439 153.618 112.163C153.712 112.171 153.803 112.198 153.887 112.242C153.97 112.286 154.044 112.346 154.105 112.418C154.165 112.491 154.211 112.574 154.239 112.665C154.267 112.755 154.277 112.85 154.269 112.944C154.26 113.038 154.233 113.129 154.189 113.213C154.146 113.297 154.086 113.371 154.014 113.431C153.941 113.492 153.858 113.538 153.768 113.566C153.678 113.594 153.583 113.604 153.489 113.596C145.624 112.879 130.759 113.968 130.609 113.975H130.552Z" fill="white"/>
</svg>
