<svg width="255" height="56" viewBox="0 0 255 56" fill="none" xmlns="http://www.w3.org/2000/svg">
<path d="M29.5936 0.832621L30.4259 0.832618L30.4259 0.000349522L29.5936 0.000340587L29.5936 0.832621ZM29.5936 51.1864L28.7614 51.1864L28.7614 52.0186L29.5936 52.0187L29.5936 51.1864ZM143.08 51.1907L143.08 50.3585L143.08 51.1907ZM254.903 51.1951L246.58 46.3896L246.58 56L254.903 51.1951ZM-0.000210249 1.66456L29.5936 1.6649L29.5936 0.000340587L-0.000193696 -5.67914e-06L-0.000210249 1.66456ZM28.7613 0.832624L28.7614 51.1864L30.4259 51.1864L30.4259 0.832618L28.7613 0.832624ZM29.5936 52.0187L143.08 52.023L143.08 50.3585L29.5937 50.3541L29.5936 52.0187ZM143.08 52.023L247.412 52.0271L247.412 50.3626L143.08 50.3585L143.08 52.023Z" fill="#005F20"/>
</svg>
