<svg width="52" height="52" viewBox="0 0 52 52" fill="none" xmlns="http://www.w3.org/2000/svg">
<g clip-path="url(#clip0_26_15634)">
<path d="M52 26.0002C52 11.6407 40.3594 0.000137329 26 0.000137329C11.6406 0.000137329 0 11.6407 0 26.0002C0 38.9775 9.50782 49.7338 21.9375 51.6843V33.5158H15.3359V26.0002H21.9375V20.272C21.9375 13.7558 25.8191 10.1564 31.7581 10.1564C34.6027 10.1564 37.5781 10.6642 37.5781 10.6642V17.0627H34.2996C31.0697 17.0627 30.0625 19.0668 30.0625 21.123V26.0002H37.2734L36.1207 33.5158H30.0625V51.6843C42.4922 49.7338 52 38.9775 52 26.0002Z" fill="#1877F2"/>
<path d="M36.1212 33.5156L37.2739 26H30.063V21.1228C30.063 19.0667 31.0702 17.0625 34.3001 17.0625H37.5786V10.664C37.5786 10.664 34.6032 10.1562 31.7586 10.1562C25.8196 10.1562 21.938 13.7556 21.938 20.2719V26H15.3364V33.5156H21.938V51.6841C23.2617 51.8918 24.6184 52 26.0005 52C27.3826 52 28.7393 51.8918 30.063 51.6841V33.5156H36.1212Z" fill="white"/>
</g>
<defs>
<clipPath id="clip0_26_15634">
<rect width="52" height="52" fill="white"/>
</clipPath>
</defs>
</svg>
